<svg width="1600" height="1600" viewBox="0 0 1200 1200">
  <path style="fill:#fff;stroke:#fff;stroke-width:13"
    d="M665 709c-5 0-8 4-11 8-5 7-6 15 1 20l13 8c9 6 17 10 28 25 10 15 13 24 15 35 3 12 6 25 21 45 2 4 7 6 12 6l9-3c7-4 8-14 3-21-11-15-13-24-15-34-3-12-6-26-21-46s-26-27-37-33l-10-7a15 15 0 0 0-8-3zm-3 3a13 13 0 0 1 10 2l10 7c11 6 22 13 36 33s18 32 20 44c3 11 5 20 16 36 4 5 3 13-3 18a13 13 0 0 1-7 2c-4 0-8-2-11-5-14-20-17-33-20-45-2-10-4-20-15-35a84 84 0 0 0-29-26l-13-8c-5-4-6-12-2-18a13 13 0 0 1 8-5zm82 143c-4 0-9-2-12-6-14-19-17-33-20-45-2-10-4-19-15-34a82 82 0 0 0-29-26l-12-8a14 14 0 0 1 16-23l11 7c10 6 22 13 36 33s18 33 21 45c2 11 4 20 15 35 5 6 3 15-3 20a14 14 0 0 1-8 2zM527 704c-6 0-11 4-13 10l-4 14c-3 11-5 20-16 35s-19 20-28 25c-10 7-22 14-37 34-5 7-3 16 4 21a15 15 0 0 0 21-3c11-15 19-20 28-26 10-6 23-13 37-33s17-34 20-46l3-11c3-8-2-14-10-17-1.98-.4-3.02-3.4-5-3zm0 2a13 13 0 0 1 5 1c7 2 10 9 8 16l-3 12c-3 12-6 25-20 44-14 20-26 27-36 33-9 6-18 11-29 26a13 13 0 0 1-18 3c-6-4-7-12-3-18 14-19 26-26 36-33 10-5 18-11 29-26s13-24 16-35l4-14c2-5 6-9 11-9zm-85 139c-12.51 1.2-20.14-13.42-12-23 15-19 26-26 37-33 9-5 17-10 28-25s13-25 16-35l4-15a14 14 0 0 1 26 9l-3 12c-3 12-6 25-20 45s-26 27-37 33c-9 6-17 11-28 26-3 4-7 6-11 6zm-85-320a15.07 15.07 0 1 0-3 30c17 5 24 11 32 18 10 8 20 18 44 25 14 5 26 6 35 6h14l12-1c9 0 13-7 14-15 0-9-5-15-14-16l-15 1c-10 1-20 2-37-4-18-6-24-12-33-19-9-8-20-17-43-24zm0 2a13 13 0 0 1 5 1c23 7 33 16 43 24 8 7 15 14 33 19 18 6 28 5 39 5l14-1c8 0 13 6 13 13s-6 13-13 13h-12l-14 1c-9 0-20-1-35-6-23-8-33-16-42-24-8-8-16-14-34-20-6-2-10-9-8-16a13 13 0 0 1 11-9zm108 75v2zm0 1c-9 0-20-1-35-6-23-8-34-17-43-24-8-8-15-14-33-20a14 14 0 1 1 9-26c23 7 33 16 42 24 9 7 16 13 34 19s27 5 38 4h14c8 0 14 6 14 14s-6 14-14 14h-12Zm144-247c-9 0-15 7-15 15 0 19-4 27-8 37-5 11-10 24-10 49 0 24 5 37 10 48l4 12c2 6 8 10 15 10h4c8-3 13-11 10-19-1-6-3-10-5-14-4-10-8-19-8-37s4-27 8-37c5-11 10-24 10-49 0-8-7-15-15-15zm0 2a13 13 0 0 1 13 13c0 24-5 37-10 48-4 10-8 19-8 38 0 18 4 27 8 38l5 13c2 7-2 14-8 17h-4c-6 0-11-3-12-9l-5-12c-5-11-10-23-10-47s5-37 10-48c4-10 8-19 8-38a13 13 0 0 1 13-13zm-4 168c-6 0-12-4-14-10l-4-11c-5-11-10-24-10-48 0-25 5-37 10-48 4-11 8-19 8-38a14 14 0 1 1 28 0c0 24-5 37-10 48-4 10-8 19-8 38s4 27 8 37l5 14a14 14 0 0 1-13 18zm243 16a15 15 0 0 0-6 1c-17 5-26 5-37 4-12-1-26-2-50 5s-34 17-43 25l-7 5c-7 5-9 15-4 22 3.04 4.07 5.93 8.33 11 8h2l6-3 12-9c8-7 15-13 33-19 17-6 26-5 37-4 12 1 27 2 50-5a15.13 15.13 0 1 0-4-30Zm0 2a13 13 0 0 1 11 9c3 7-1 14-8 16-23 8-36 7-48 6-11-1-21-2-39 4s-25 12-34 19l-11 9c-2 2-5 3-7 3a13 13 0 0 1-11-6c-4-6-3-14 3-18l10-7c9-8 19-17 42-25s37-6 49-5c11 1 20 2 38-4a13 13 0 0 1 5-1zm-133.51 65.5a14 14 0 0 1-15.28-9.28c-2.2-6.36-2.05-11.88 3.79-15.22l10-7c9-8 20-17 43-25s37-6 49-5c11 1 20 1 38-4a14 14 0 1 1 8 26c-23 8-36 7-49 6-10-1-20-2-38 4s-24 12-33 19l-11 9zM600 497c-72.58-.56-131.56 58.42-131 131-.56 72.58 58.42 131.56 131 131 72.58.56 131.56-58.42 131-131 .56-72.58-58.42-131.56-131-131zm0 2c71.48-.56 129.56 57.52 129 129 .56 71.48-57.52 129.56-129 129-71.48.56-129.56-57.52-129-129-.56-71.48 57.52-129.56 129-129zm0 26c-56.89 0-103 46.11-103 103s46.11 103 103 103 103-46.11 103-103-46.11-103-103-103zm0 2c55.78 0 101 45.22 101 101s-45.22 101-101 101-101-45.22-101-101 45.22-101 101-101zm0 231c-72.03.56-130.56-57.97-130-130-.56-72.03 57.97-130.56 130-130 72.03-.56 130.56 57.97 130 130 .56 72.03-57.97 130.56-130 130zm0-232c-56.33 0-102 45.67-102 102s45.67 102 102 102 102-45.67 102-102-45.67-102-102-102zm66-8c-4 0-7-1-10 2-9.93 9.2-3.54 25.82 10 26 4.06.21 8.03.77 11-2 6-6 6-16 0-22a15 15 0 0 0-11-4zm0 2a13 13 0 0 1 9 4c5 5 5 13 0 18a13 13 0 0 1-9 4c-11.27-.33-16.81-13.87-9-22a13 13 0 0 1 9-4zm0 27a14 14 0 1 1 .4-28 14 14 0 0 1-.4 28zm41 104c-1.37.15-1.72 2.48-3 3-8 4-11 13-7 21l3 2c3.53 2.35 6 4 9 4h1c3 0 7-1 10-4 6-6 7-15 1-21l-1-1a15 15 0 0 0-13-4zm1 2a13 13 0 0 1 11 4c7.81 8.13 2.27 21.67-9 22l-9-3-3-5c-3-6 0-14 6-17a13 13 0 0 1 4-1zm2 27c-4 0-7-1-9-4l-4-4c-3-7-1-15 6-19a14 14 0 0 1 17 3c9.03 8.85 2.64 24.18-10 24zm174-316c-15 0-31 2-47 5-38 9-75 28-108 56a15.24 15.24 0 0 0 20 23c24-21 56-39 90-48s70-8 104 10c32 16 59 48 71 83 11 36 8 78-8 110-17 34-46 56-79 69-32 13-69 16-101 14h-1a15 15 0 1 0-1 30l20 1h1c35 0 69-6 99-19 40-17 71-46 89-82 20-39 23-88 10-132-15-43-47-81-85-101-23-12-48-18-74-19zm0 3c26 0 50 7 72 18 39 20 70 57 85 99v1c13 43 9 91-10 130-18 36-48 64-88 81-30 12-63 19-97 19h-1l-21-1c-7-1-12-6-12-13a13 13 0 0 1 13-13h1c32 3 69-1 102-14s63-35 80-70c16-33 20-75 9-111-13-36-40-68-72-85-35-18-72-19-106-10s-67 27-92 49c-5 4-13 4-18-2-5-5-4-13 2-18 32-28 69-47 106-55 16-4 32-6 47-5zm-38 348-1 1h-1zm-1 1-21-1a14.04 14.04 0 1 1 2-28c65 5 146-15 181-84 16-32 19-74 8-110-12-35-39-67-71-84-69-36-146-4-196 39a14.21 14.21 0 1 1-18-22c32-28 70-47 107-55 43-10 84-6 120 13 39 20 70 57 85 100v1c14 43 10 92-10 131-18 36-48 64-89 81-29 12-63 19-98 19zm-131.5-70.5A15 15 0 0 0 698 660c-.28 8.28 2.72 16.72 11 17 18 2 36 6 56 13 42 13 83 41 111 76 29 35 45 77 37 121-5 35-27 71-57 94-30 21-71 31-106 25-45-6-80-35-105-73s-37-85-37-129c0-20 2-39 5-57 2-9-4.5-15.5-12.5-16.5-8-2-15.5 2.5-17.5 10.5a277 277 0 0 0 37 209c14 23 32 42 52 56 22 16 47 26 73 30a164 164 0 0 0 24 2h2c36 0 73-12 103-33 36-27 62-69 69-113 5-26 3-52-6-78-7-24-20-47-37-68a277 277 0 0 0-187-99c-1-.1 1.5-1.6.5-1.5zM710 649h2a275 275 0 0 1 186 99c17 21 30 43 37 66 8 26 10 52 6 78-7 43-33 84-68 111h-1c-30 21-67 33-103 33a161 161 0 0 1-95-32c-20-14-38-33-52-56-27-41-42-94-42-144 0-22 2-43 5-62v-1a13.24 13.24 0 1 1 26 5 247 247 0 0 0 33 188c24 39 60 68 105 75 36 5 77-5 108-27s53-59 59-94c7-45-9-89-38-124s-70-63-113-77c-19-6-38-10-56-12-7-1-12-8-11-15 1-6 6-11 12-11zm59 388a163 163 0 0 1-96-32c-20-14-38-33-52-56a276 276 0 0 1-37-208 14.32 14.32 0 1 1 28 6c-4 18-5 37-5 57 0 89 53 190 143 203 35 6 76-4 107-25 30-23 52-59 58-94 15-90-65-172-150-199-20-7-38-11-56-13a14.14 14.14 0 1 1 4-28c19 2 39 7 60 14 48 15 94 46 126 85 17 21 30 44 37 67 9 26 11 52 6 78-7 43-33 85-69 112-30 21-68 33-104 33zM489 647a15 15 0 1 0 0 30 15 15 0 0 0 0-30zm0 2a13 13 0 1 1 0 26 13 13 0 0 1 0-26zm0 27a14 14 0 1 1 14-14c0 8-6 14-14 14zm-114 10-8 2c-36 23-66 52-86 85-23 38-31 79-25 119 8 44 34 86 70 113 30 22 68 33 104 33h1l24-1c40-6 76-27 105-60 26-30 45-67 55-109 2-8-3-16-11-18-9-2-17 3-19 11-7 31-22 65-45 92-22 27-52 50-90 55-35 6-76-6-106-27-62.1-45.08-77.54-131.14-35-195 19-30 46-55 74-72a15 15 0 0 0 8-13c0-8-7-15-16-15zm0 2a13 13 0 0 1 13 13c0 5-2 9-6 11-28 17-56 42-75 72s-29 65-23 104c6 36 28 72 59 95 31 21 72 31 108 26 38-6 69-27 91-55s38-61 46-93a13 13 0 0 1 15-9 13 13 0 0 1 9 15c-10 42-28 79-53 108-31.83 37.9-78.52 62.15-128 63-36 0-73-14-103-35h-1c-35-27-61-68-68-111-7-39 2-80 24-117 20-33 49-62 86-85zm56 350h-1zm0 0c-36 0-74-12-104-34h-1c-35-27-61-69-68-112-7-39 1-80 24-118 20-33 50-62 86-85l7-2c14.08.21 19.08 18.75 7 26-55 35-109 98-97 175 6 35 28 71 58 94 31 21 72 31 107 26 77-12 121-84 136-147 2-8 10-12 17-10 8 2 13 9 11 17-10 41-29 79-55 108-28 33-65 55-104 61-7.94 1.26-15.96.93-24 1zM316 364c-26 1-51 7-74 19-38 20-70 58-85 101-14 44-10 93 10 132 18 36 49 65 89 82 30 13 64 19 99 19h1l21-1a333 333 0 0 0 121-37c2-1 5-3 6-6 4-8 0-16-7-20-5-2-10-3-14 0a297 297 0 0 1-109 33c-32 2-69-1-101-14s-62-35-79-69c-16-32-19-74-8-110 12-35 39-67 71-83 34-18 70-19 104-10s66 27 90 48c7 6 16 5 22-1 5-7 4-16-2-22-33-28-70-47-108-56-16-3-32-5-47-5zm0 3c15-1 31 1 47 5 37 8 74 27 106 55a13 13 0 0 1-16 20c-25-22-57-40-91-49-35-9-72-8-107 10-32 17-59 49-72 85-10 36-7 78 9 111 17 35 47 57 80 70a237 237 0 0 0 159 3c20-6 37-14 53-22 4-2 8-3 13-1 6 4 8 11 5 18l-5 5a330 330 0 0 1-121 37l-21 1h-1c-34 0-67-7-97-19-40-17-70-45-88-81-19-39-23-87-10-130v-1c15-42 46-79 85-99 22-11 46-18 72-18zm39 349c-35 0-69-7-98-19-40-17-71-45-89-81-20-39-23-88-10-131v-1c15-43 46-80 85-100 36-19 77-23 120-13 38 8 75 27 107 55 6 5 7 14 2 20s-14 7-20 2c-50-43-127-75-196-39-32 16-59 49-71 84-11 36-8 78 8 110 35 69 116 89 181 84a298 298 0 0 0 109-33c5-3 10-3 14-1 10.26 5.18 10.26 19.82 0 25a331 331 0 0 1-121 37zm179-198a15 15 0 0 0-15.5 14.5c-.28 8.28 3.72 14.72 12 15A15 15 0 0 0 546 533c.28-8.28-3.72-14.72-12-15zm0 2a13 13 0 0 1 12 13 13 13 0 0 1-12 13 13 13 0 0 1 0-26zm0 27a14 14 0 0 1-15-14 14.5 14.5 0 0 1 29 0c0 8-7 14-14 14zm66-385c-46 1-91 19-123 50-19 19-32 42-41 67-8 24-11 50-9 77a277 277 0 0 0 93 191 15 15 0 0 0 10 4c4 0 5.3-7.78 8.3-10.78 6-6 8.7-10.22 2.7-16.22a245 245 0 0 1-83-170c-3-45 9-88 41-120 25-25 64-41 101-42 37 1 76 17 101 42 32 32 44 75 42 120s-20 91-46 127c-12 16-24 31-38 43-6 6-5 14 1 20 5 6 15 6 21 1 15-14 28-28 40-46 30-41 49-93 52-143 2-27-1-53-9-77-9-25-23-48-41-67-32-31-77-49-123-50zm0 2c45 1 90 20 121 50 19 18 32 41 41 66 7 23 10 49 9 76-3 50-22 101-51 142-13 17-27 33-42 47a13 13 0 0 1-18-1 13 13 0 0 1 1-18 247 247 0 0 0 84-172c3-45-10-90-42-122-26-25-65-41-103-42-38 1-77 17-103 42-33 32-45 77-42 122a252 252 0 0 0 84 172c5 5 3.3 9.22-.7 14.22-3 3-4.3 7.78-8.3 7.78a13 13 0 0 1-9-3 275 275 0 0 1-92-189c-1-27 2-53 9-76 9-25 22-48 41-66 31-30 76-49 121-50zm-70 386c-3 0-7-2-9-4a276 276 0 0 1-93-190c-2-27 1-53 9-76 9-26 22-48 41-67 31-30 77-49 122-50 45 1 91 20 122 50 18 19 32 41 41 67 7 23 10 49 9 76a276 276 0 0 1-93 190 14.16 14.16 0 1 1-19-21c13-12 26-27 38-43 53-72 69-185 4-249-26-25-65-41-102-42-37 1-77 17-102 42-65 64-49 177 4 249 12 17 25 31 38 43 5 6 4.3 10.22-1.7 15.22-2 3-4.3 9.78-8.3 9.78Z" />
</svg>
