<svg xmlns="http://www.w3.org/2000/svg" width="256" height="256"><path fill-opacity=".016" fill-rule="evenodd" d="M0 128.004v128.004l128.25-.254 128.25-.254.254-127.75L257.008 0H0zm.485.496c0 70.4.119 99.053.265 63.672s.146-92.98 0-128S.485 58.1.485 128.5"/><path fill-opacity=".179" fill-rule="evenodd" d="M0 128.004v128.004l128.25-.254 128.25-.254.254-127.75L257.008 0H0zm.485.496c0 70.4.119 99.053.265 63.672s.146-92.98 0-128S.485 58.1.485 128.5M115.3 35.805C104.885 39.518 98.66 45.314 93.608 56c-2.77 5.859-3.075 7.462-3.091 16.248-.009 5.361-.297 9.748-.64 9.75-.342.001-2.817-.996-5.5-2.215-4.025-1.83-6.714-2.223-15.387-2.25-9.89-.031-10.903.161-17.197 3.254-7.689 3.778-13.395 9.667-17.532 18.092-2.456 4.999-2.761 6.727-2.761 15.621 0 8.925.312 10.675 2.901 16.282 5.092 11.027 16.94 19.884 29.349 21.941 1.787.296 3.25.746 3.25.999s-1.59 2.318-3.534 4.589c-7.981 9.323-11.883 22.781-9.584 33.053C56.486 203 64.773 213.761 75 218.79c4.964 2.441 6.571 2.704 16.5 2.707 9.502.003 11.644-.314 15.731-2.327 6.404-3.154 13.636-9.87 17.269-16.038 1.65-2.801 3.225-5.092 3.5-5.092s1.85 2.283 3.5 5.073c6.851 11.584 17.721 18.107 31.19 18.717 20.199.914 35.94-11.807 39.48-31.905 1.811-10.283-1.958-22.644-9.642-31.621-1.94-2.267-3.528-4.329-3.528-4.582s1.463-.703 3.25-.999c12.409-2.057 24.257-10.914 29.349-21.941 2.589-5.607 2.901-7.357 2.901-16.282 0-8.894-.305-10.622-2.761-15.621-4.137-8.425-9.843-14.314-17.532-18.092-6.294-3.093-7.307-3.285-17.197-3.254-8.673.027-11.362.42-15.387 2.25-2.683 1.219-5.158 2.216-5.5 2.215-.343-.002-.623-4.413-.624-9.804 0-9.321-.185-10.174-3.778-17.443-4.283-8.666-9.277-13.621-17.721-17.578-7.412-3.474-20.978-4.121-28.7-1.368m3.79 7.773c-13.462 4.9-19.959 14.458-20.046 29.49-.068 11.73 5.165 25.926 11.957 32.433 2.766 2.65 2.947 2.683 7.092 1.301l4.254-1.418-.234-6.467c-.129-3.557.305-7.806.964-9.442s1.726-5.193 2.37-7.904c1.323-5.563 3.562-7.681 6.303-5.965 2.582 1.617 2.66 6.608.225 14.475-1.663 5.372-1.957 7.834-1.28 10.698.791 3.348 1.419 3.915 6.262 5.657l5.382 1.936 3.459-3.936c10.892-12.394 14.714-33.672 8.305-46.233-6.34-12.428-22.502-19.178-35.013-14.625M59.492 86.797c-16.346 5.653-24.537 23.885-17.883 39.809 2.368 5.669 8.817 11.855 15.644 15.009 5.858 2.705 7.026 2.882 18.747 2.837 10.021-.039 13.492-.441 17.5-2.027l5-1.978.296-5.054.297-5.054-5.571-1.247c-3.435-.768-7.351-2.605-10.213-4.79-2.554-1.949-6.171-4.182-8.038-4.962-2.798-1.169-3.341-1.879-3.084-4.029.708-5.905 4.976-5.583 15.211 1.151 8.615 5.667 13.074 6.096 16.414 1.578 1.203-1.627 2.188-3.234 2.188-3.57 0-.337-1.968-3.392-4.374-6.791-2.406-3.398-5.131-7.667-6.056-9.486-2.1-4.133-9.136-8.667-17.425-11.229-7.744-2.393-12.103-2.432-18.653-.167m117.867.202c-9.296 3.038-15.08 7.463-19.61 15.001-2.148 3.575-4.77 7.429-5.827 8.564-2.385 2.562-2.384 4.303.003 7.163 1.799 2.156 1.966 2.174 5.186.568 2.084-1.04 7.635-1.972 14.858-2.494 10.083-.73 11.679-.632 12.713.78 1.636 2.235.149 5.727-2.789 6.55-1.316.368-5.543.724-9.393.791-4.554.079-8.485.796-11.25 2.051-4.166 1.891-4.25 2.027-4.25 6.867 0 4.904.025 4.942 3.708 5.633 2.039.383 6.652 2.046 10.25 3.697 5.843 2.68 7.343 2.957 14.042 2.59 13.327-.73 25.047-8.037 29.58-18.443 2.67-6.131 2.414-17.711-.525-23.74-6.889-14.128-21.785-20.451-36.696-15.578m-55.383 27.535c-14.667 4.522-19.079 23.125-8.039 33.904 7.995 7.808 20.131 7.808 28.126 0 11.215-10.951 6.597-29.492-8.46-33.963-5.847-1.737-5.802-1.737-11.627.059m29.953 35.56-2.57 4.046 3.307 3.61c1.818 1.986 4.025 5.667 4.903 8.18s2.475 6.528 3.549 8.92 1.697 5.157 1.385 6.142c-.69 2.173-3.618 3.083-5.868 1.824-1.734-.971-5.635-7.867-5.635-9.96 0-2.527-4.19-9.75-6.554-11.3-2.254-1.476-2.91-1.477-7.951-.011L131 163.142v8.247c0 28.295 20.388 48.022 42.455 41.081 16.178-5.088 25.011-24.036 18.17-38.979-1.426-3.115-4.043-7.493-5.814-9.73-6.178-7.799-18.285-15.119-28.311-17.115-2.681-.534-3.274-.167-5.571 3.448m-53.578-.645c-1.732.753-6.625 2.143-10.872 3.088-7.238 1.61-8.11 2.101-13.919 7.84-7.7 7.608-10.88 13.935-11.372 22.623-.535 9.464 2.315 16.431 9.353 22.863 6.931 6.335 13.231 8.565 22.351 7.913 3.643-.261 8.151-1.264 10.018-2.229 5.45-2.819 12.501-10.604 15.922-17.58l3.172-6.467-.65-12.628-.65-12.627-3.181-.977c-3.079-.944-3.257-.833-5.528 3.448-1.291 2.433-3.647 5.404-5.237 6.604-1.589 1.199-4.823 3.868-7.186 5.93-4.426 3.864-7.281 4.641-9.372 2.55-2.685-2.685-.187-6.922 7.3-12.382 4.871-3.553 6.208-5.047 7.956-8.892 1.244-2.738 1.141-3.272-1.302-6.729-3.029-4.285-2.652-4.155-6.803-2.348"/><path fill-opacity=".757" fill-rule="evenodd" d="M0 128.004v128.004l128.25-.254 128.25-.254.254-127.75L257.008 0H0zm.485.496c0 70.4.119 99.053.265 63.672s.146-92.98 0-128S.485 58.1.485 128.5m119.764-94.442C109.153 36.246 98.077 45.036 93.37 55.39c-2.304 5.066-2.847 7.843-3.184 16.255l-.405 10.146-4.188-1.853c-23.697-10.482-50.022 3.375-54.723 28.808-2.076 11.229 2.213 24.39 10.722 32.898 4.8 4.801 14.572 10.003 20.658 10.998 2.063.338 3.75.902 3.75 1.255 0 .354-2.032 3.333-4.517 6.623-9.122 12.078-10.913 26.717-4.83 39.48 4.113 8.629 8.945 13.977 16.021 17.732 11.282 5.986 23.446 6.649 33.934 1.847 6.139-2.81 16.12-11.801 18.964-17.083 1.036-1.923 2.148-3.496 2.471-3.496.324 0 1.555 1.719 2.735 3.82 2.726 4.849 11.677 13.351 16.82 15.975 10.643 5.43 24.322 5.03 35.717-1.044 7.076-3.771 11.902-9.105 16.059-17.751 2.788-5.798 3.126-7.473 3.126-15.5 0-7.724-.389-9.831-2.744-14.858-1.509-3.222-4.322-8.007-6.25-10.634S190 154.012 190 153.744c0-.269 1.688-.764 3.75-1.102 6.086-.995 15.858-6.197 20.658-10.998 5.625-5.625 9.232-12.68 10.497-20.532 3.317-20.602-10.086-39.825-30.823-44.205-6.328-1.337-16.845.01-23.675 3.031l-4.188 1.853-.396-10.146c-.326-8.319-.873-11.174-3.04-15.863-5.179-11.205-15.808-19.511-27.903-21.805-5.888-1.116-8.639-1.101-14.631.081M123 42.944c-13.914 2.921-22.623 13.002-23.711 27.446-.861 11.416 3.594 25.146 11.001 33.907l3.21 3.796 4-1.393 4-1.393.542-8.403c.298-4.622 1.086-9.387 1.75-10.588.664-1.202 1.208-3.478 1.208-5.059 0-4.244 2.047-6.491 5.549-6.093 2.797.319 2.967.605 3.25 5.5.178 3.061-.332 6.675-1.25 8.872-1.605 3.843-2.069 12.147-.784 14.055.404.599 2.985 1.856 5.735 2.792l5 1.702 2.717-3.215c1.494-1.768 4.251-6.175 6.128-9.792 10.766-20.762 5.642-42.597-11.742-50.029-5.124-2.191-12.027-3.066-16.603-2.105M56.5 88.302c-5.885 2.806-11.928 9.15-14.713 15.447-2.848 6.439-2.259 17.915 1.271 24.778C45.99 134.226 53.16 140.161 60 142.552c9.742 3.404 24.919 2.865 35.208-1.252 3.666-1.467 3.792-1.68 3.792-6.409 0-4.664-.128-4.892-2.75-4.913-3.298-.026-10.963-3.363-13.764-5.992-1.107-1.04-3.618-2.561-5.579-3.38-5.101-2.132-6.475-4.064-5.075-7.136 1.712-3.757 6.683-3.334 13.318 1.132 11.581 7.798 15.079 8.335 18.626 2.86l2.276-3.514-3.276-4.076c-1.802-2.243-4.626-6.618-6.276-9.724-2.736-5.151-3.693-6-10.876-9.648-6.974-3.542-8.805-4.033-16-4.291-6.874-.246-8.893.076-13.124 2.093m118.392.052c-9.326 3.837-12.523 6.328-15.95 12.431-1.765 3.143-4.522 7.384-6.126 9.423-2.816 3.579-2.86 3.796-1.252 6.25 1.95 2.975 2.53 3.062 6.558.979 1.725-.892 7.606-1.932 13.7-2.422 9.134-.734 10.931-.63 12.428.718.963.867 1.75 2.397 1.75 3.399 0 3.315-4.283 5.009-13.245 5.238-6.286.161-9.213.713-11.807 2.228-3.099 1.81-3.448 2.457-3.448 6.393 0 4.353.026 4.385 4.505 5.527 2.477.632 7.321 2.414 10.764 3.959 5.463 2.451 7.064 2.734 12.562 2.221 13.971-1.305 25.514-8.925 28.995-19.142 2.26-6.631 2.144-16.924-.248-22.193-2.744-6.042-8.864-12.344-14.578-15.01-6.853-3.198-16.831-3.198-24.608.001M119.5 115.89c-15.652 7.224-15.198 29.906.732 36.562 7.013 2.93 16.079 1.359 21.636-3.75 7.886-7.249 7.886-22.155 0-29.404-5.763-5.298-15.168-6.731-22.368-3.408m33.039 34.23-2.623 3.964 3.508 4.099c1.93 2.254 4.225 6.398 5.101 9.208s2.241 6.303 3.034 7.763 1.441 3.582 1.441 4.715c0 2.415-3.303 4.487-5.86 3.676-2.205-.7-5.563-6.575-7.137-12.485-.679-2.549-2.583-5.84-4.473-7.73l-3.29-3.29-5.37 1.822-5.37 1.821-.295 6.058c-.835 17.149 9.064 35.665 22.081 41.301 14.323 6.202 31.468-.493 38.017-14.846 3.242-7.105 3.019-17.021-.545-24.28-5.136-10.457-17.679-20.444-30.427-24.226l-5.169-1.534zM98 149.992c-.825.529-4.875 1.705-9 2.612-9.24 2.032-9.068 1.939-15.657 8.461-7.629 7.551-10.85 14.531-10.816 23.435.046 11.834 5.77 21.043 16.291 26.21 7.444 3.655 18.447 3.927 24.707.611 5.784-3.064 13.151-11.387 16.463-18.598 2.773-6.037 2.842-6.577 2.292-18.052-.543-11.36-.662-11.866-2.988-12.75-3.494-1.329-3.573-1.289-6.037 3.026-1.235 2.162-4.109 5.421-6.387 7.242-2.279 1.821-5.725 4.774-7.659 6.561-3.856 3.564-4.428 3.738-7.275 2.215-3.616-1.936-2.491-6.367 2.704-10.645 12.504-10.299 14.072-13.088 10.262-18.241-2.345-3.172-4.29-3.76-6.9-2.087"/><path fill-opacity=".96" fill-rule="evenodd" d="M0 128.004v128.004l128.25-.254 128.25-.254.254-127.75L257.008 0H0zm.485.496c0 70.4.119 99.053.265 63.672s.146-92.98 0-128S.485 58.1.485 128.5m116.002-93.76C98.926 41.019 89.844 53.693 89.61 72.249c-.06 4.811-.206 8.749-.323 8.75s-2.592-.94-5.5-2.089c-7.554-2.987-17.939-3.585-25.337-1.458-11.603 3.336-19.715 10.463-25.173 22.118-2.431 5.192-2.775 7.112-2.759 15.43.016 8.166.392 10.303 2.68 15.218 5.066 10.881 14.496 18.641 27.059 22.267l5.757 1.661-3.48 4.247c-4.479 5.466-8.415 14.104-9.485 20.813-2.548 15.988 7.234 33.441 22.733 40.561 8.159 3.748 20.426 4.289 28.47 1.256 7.402-2.79 14.635-8.543 19.439-15.462 2.095-3.017 4.071-5.502 4.391-5.523.319-.021 2.028 2.195 3.797 4.924 4.001 6.175 9.883 11.276 17.084 14.816 4.909 2.413 6.674 2.722 15.559 2.722 9.281 0 10.509-.24 16.605-3.241 7.928-3.904 14.951-11.057 18.693-19.041 2.347-5.007 2.68-6.961 2.68-15.718 0-8.843-.321-10.686-2.777-15.93-1.528-3.262-4.343-7.841-6.257-10.177l-3.48-4.247 5.757-1.661c12.559-3.624 21.982-11.377 27.067-22.267 2.304-4.935 2.669-7.018 2.669-15.218 0-8.282-.354-10.26-2.766-15.43-5.432-11.641-13.554-18.781-25.163-22.118-7.398-2.127-17.783-1.529-25.337 1.458-2.908 1.149-5.453 2.09-5.655 2.09-.203 0-.133-2.595.155-5.766.924-10.198-3.294-22.132-10.877-30.768-1.668-1.899-6.391-5.114-10.496-7.142-6.407-3.167-8.622-3.738-15.652-4.033-6.042-.254-9.502.126-13.201 1.449m2.216 9.702c-9.757 3.481-15.582 9.994-18.243 20.399-3.124 12.211 1.39 29.037 10.841 40.421l2.294 2.763 4.086-1.746 4.087-1.745-.46-5.517c-.332-3.973.121-7.17 1.616-11.424 1.142-3.248 2.076-6.891 2.076-8.095 0-1.203.931-3.03 2.068-4.06 1.888-1.708 2.303-1.741 4.75-.374 3.521 1.967 3.888 5.978 1.236 13.523-2.16 6.145-2.624 11.965-1.141 14.307.486.766 2.391 1.943 4.235 2.615 1.844.671 4.027 1.503 4.852 1.848 1.995.833 9.276-9.009 12.101-16.357 3.664-9.531 4.485-17.788 2.55-25.631-2.043-8.278-5.692-13.793-11.616-17.557-7.734-4.913-17.4-6.199-25.332-3.37M56.2 89.058c-13.144 6.568-18.904 20.057-14.737 34.514 2.231 7.739 9.493 15.121 18.132 18.431 8.575 3.287 22.304 3.349 32.076.147l7.171-2.35-.506-3.65c-.784-5.652-.92-5.828-5.013-6.482-2.117-.339-6.058-2.09-8.758-3.892s-6.069-3.862-7.487-4.578A263 263 0 0 1 73 119.096c-2.227-1.188-2.412-4.984-.353-7.258C75.17 109.05 79 110.016 87 115.46c3.575 2.433 8.107 4.71 10.072 5.06 3.221.573 3.827.302 6.166-2.766l2.595-3.401-3.516-4.427c-1.934-2.434-4.606-6.568-5.938-9.185-3.006-5.907-8.702-10.143-17.149-12.752-9.437-2.914-15.634-2.627-23.03 1.069m119.679-.75c-8.6 2.932-12.977 6.371-16.954 13.323-1.778 3.107-4.546 7.145-6.152 8.974-2.884 3.286-2.897 3.355-1.096 5.833 1.127 1.551 2.396 2.276 3.323 1.9 6.146-2.49 9.77-3.157 18.88-3.475 11.459-.401 13.041.331 11.759 5.437-.811 3.235-5.343 4.686-14.655 4.694-6.678.006-13.592 2.524-13.384 4.875.055.622.167 2.464.25 4.092.132 2.599.67 3.1 4.4 4.089 2.338.62 7.098 2.477 10.579 4.127 5.724 2.714 6.92 2.933 12.5 2.294 19.857-2.275 31.97-15.211 30.405-32.472-.931-10.268-6.438-18.196-15.934-22.941-7.583-3.789-14.378-4.002-23.921-.75m-56.697 28.289c-6.957 3.466-10.649 9.5-10.649 17.403 0 20.579 27.708 27.206 36.87 8.818 3.34-6.702 3.292-11.258-.187-17.919-2.254-4.315-3.8-5.861-8.115-8.115-6.661-3.479-11.217-3.527-17.919-.187m33.037 34.014c-1.91 3.031-2.056 3.807-.9 4.756 3.009 2.467 6.565 8.395 8.033 13.39.849 2.891 2.243 6.254 3.096 7.472 1.961 2.8 1.957 4.223-.019 6.2-4.039 4.038-9.233.336-11.839-8.438-3.392-11.424-6.11-13.811-13.548-11.905-4.623 1.185-4.836 1.398-5.381 5.372-.756 5.511.828 16.173 3.355 22.582 7.428 18.845 23.556 27.208 40.353 20.923 6.204-2.321 12.658-8.605 15.685-15.273 2.975-6.554 2.649-16.878-.751-23.744-5.465-11.034-20.706-22.546-32.303-24.398-3.188-.509-3.704-.236-5.781 3.063m-56.719.478c-2.75 1.002-7.201 2.133-9.892 2.514-4.249.601-5.726 1.509-11.234 6.91-8.328 8.166-11.354 14.56-11.354 23.987 0 12.044 5.926 21.297 16.84 26.293 14.992 6.864 31.032-.188 39.623-17.419 2.362-4.739 2.851-6.84 2.531-10.874-.218-2.75-.423-8.258-.455-12.24-.058-7.077-.125-7.263-2.971-8.255-1.602-.558-2.967-.899-3.033-.76-3.013 6.34-5.038 8.672-14.33 16.505-2.773 2.338-5.913 4.25-6.978 4.25-2.081 0-5.247-2.912-5.247-4.826 0-1.701 6.659-8.8 10.454-11.146 1.794-1.108 4.307-3.986 5.585-6.395l2.323-4.379-2.431-3.072c-2.79-3.524-2.765-3.522-9.431-1.093"/></svg>