<svg xmlns="http://www.w3.org/2000/svg" width="256" height="256"><path fill-opacity=".016" fill-rule="evenodd" d="M0 128.004v128.004l128.25-.254 128.25-.254.254-127.75L257.008 0H0zm.485.496c0 70.4.119 99.053.265 63.672s.146-92.98 0-128S.485 58.1.485 128.5"/><path fill-opacity=".139" fill-rule="evenodd" d="M0 128.004v128.004l128.25-.254 128.25-.254.254-127.75L257.008 0H0zm.485.496c0 70.4.119 99.053.265 63.672s.146-92.98 0-128S.485 58.1.485 128.5m115.002-99.758c-18.996 6.785-29.37 22.47-28.32 42.817.183 3.545.092 6.444-.202 6.443s-3.219-1.003-6.5-2.227c-4.751-1.773-8.106-2.231-16.486-2.25-9.89-.024-10.92.172-17.172 3.249-7.885 3.882-15.327 11.512-19.484 19.976-2.6 5.297-2.823 6.656-2.823 17.25 0 10.688.207 11.924 2.932 17.5 5.334 10.915 16.346 19.455 29.121 22.583 2.721.667 5.11 1.346 5.309 1.51s-1.188 2.235-3.083 4.602c-8.207 10.257-11.172 18.825-10.63 30.711.295 6.471.95 8.911 4.11 15.304 14.348 29.029 53.157 31.141 71.241 3.876 2.2-3.317 4.225-6.031 4.5-6.031s2.3 2.714 4.5 6.031c4.58 6.905 9.634 11.388 17.5 15.523 5.112 2.687 6.276 2.889 16.5 2.863 9.085-.024 12.001-.428 16.747-2.321 13.301-5.306 23.867-20.275 24.603-34.859.583-11.529-2.881-21.743-10.546-31.097-1.94-2.367-3.365-4.439-3.166-4.602s2.588-.843 5.309-1.51c15.517-3.8 26.419-13.608 31.052-27.937 2.55-7.889 1.773-21.767-1.633-29.146-3.739-8.101-11.728-16.314-19.673-20.226-6.252-3.077-7.282-3.273-17.172-3.249-8.38.019-11.735.477-16.486 2.25-3.281 1.224-6.206 2.226-6.5 2.227s-.385-2.898-.202-6.443c.948-18.369-7.763-33.417-23.653-40.858-5.641-2.641-8.08-3.176-15.68-3.439-6.741-.233-10.258.139-14.013 1.48m6.351 8.682c-27.635 5.753-33.328 40.106-11.152 67.3 1.783 2.187 1.892 2.196 6.433.555l4.619-1.669-.476-6.055c-.357-4.541.05-7.546 1.631-12.02 1.159-3.281 2.107-7.023 2.107-8.316 0-3.971 1.807-6.219 5-6.219 5.286 0 6.347 5.217 3 14.74-3.255 9.261-2.257 18.26 2.025 18.26 1.141 0 3.475.724 5.187 1.61 3.556 1.839 3.779 1.661 10.203-8.11 10.257-15.603 11.354-36.236 2.57-48.362-6.779-9.358-19.493-14.139-31.147-11.714M54.764 83.996c-7.196 2.167-15.529 9.958-18.971 17.738-2.369 5.356-2.77 15.897-.828 21.766 4.575 13.825 16.364 21.379 34.748 22.266 9.092.439 11.155.199 18.8-2.185l8.588-2.677-.3-5.131-.301-5.131-5-1.135c-5.586-1.269-9.018-2.866-12.028-5.598-1.115-1.012-4.04-2.902-6.5-4.198-5.483-2.891-6.551-6.63-2.627-9.201 2.263-1.483 2.782-1.485 6.31-.018 2.115.879 5.578 2.986 7.696 4.681C87.569 117.75 95.225 121 98.075 121c.416 0 2.133-1.737 3.814-3.86l3.057-3.86-4.391-5.654c-2.415-3.11-5.358-7.654-6.541-10.096-4.914-10.152-26.156-17.477-39.25-13.534m124.736.874c-9.381 3.451-15.338 7.874-18.169 13.49-1.426 2.827-4.318 7.317-6.427 9.977l-3.835 4.837 2.174 2.94c1.458 1.972 2.681 2.716 3.715 2.26 6.913-3.051 13.014-4.52 16.946-4.079 2.421.272 5.719.035 7.327-.526 4.61-1.607 7.979.377 7.582 4.465-.423 4.357-3.497 5.733-12.851 5.751-5.808.012-8.562.531-12 2.265-4.231 2.134-4.478 2.493-4.765 6.947l-.302 4.698 4.302 1.143c2.367.63 7.612 2.515 11.657 4.19 6.568 2.72 8.117 2.987 14.5 2.503 15.609-1.185 27.471-9.509 31.681-22.231 1.942-5.869 1.541-16.41-.828-21.766-2.55-5.763-8.333-12.137-14.054-15.49-6.01-3.522-18.995-4.192-26.653-1.374m-60 29.996c-14.603 6.65-17.233 25.259-5.078 35.931 15.122 13.278 38.689-1.192 34.413-21.129-1.959-9.135-11.345-16.624-20.835-16.624-2.475 0-6.3.82-8.5 1.822m34.278 37.07c-2.576 3.934-2.576 3.937-.561 5.75 2.475 2.228 7.757 11.263 7.783 13.314.011.825 1.149 3.927 2.53 6.894 2.324 4.991 2.396 5.57.968 7.75-3.129 4.776-8.109 1.828-11.088-6.563-.895-2.52-2.11-5.886-2.702-7.481-.591-1.595-2.562-4.387-4.379-6.204-3.239-3.239-3.373-3.276-6.784-1.85-1.915.8-4.343 1.454-5.396 1.454-3.46 0-4.147 8.601-1.638 20.5 4.197 19.901 18.221 33.875 33.996 33.875 17.427 0 31.743-13.884 31.743-30.784 0-11.689-7.65-24.015-19.984-32.203-5.281-3.505-16.99-8.322-20.338-8.367-.865-.012-2.732 1.75-4.15 3.915m-58.971.079c-2.58 1.049-7.704 2.431-11.385 3.072-6.338 1.104-7.046 1.516-13.38 7.789-7.188 7.119-10.462 12.78-11.949 20.659-2.583 13.687 6.873 29.616 20.236 34.087 16.412 5.491 32.151-1.967 40.67-19.271 1.854-3.767 3.324-8.2 3.267-9.85-.058-1.651-.23-7.565-.382-13.144l-.277-10.142-3.503-1.075c-1.926-.591-3.558-.977-3.625-.858-4.299 7.609-6.187 10.135-9.251 12.373-2.051 1.498-5.303 4.149-7.228 5.891-4.505 4.078-6.285 4.643-8.885 2.822-3.471-2.431-2.627-5.634 2.762-10.481 2.683-2.413 5.972-5.131 7.31-6.04s3.493-3.652 4.789-6.095l2.356-4.442-2.916-3.655c-1.604-2.01-3.141-3.63-3.416-3.6s-2.612.912-5.193 1.96"/><path fill-opacity=".32" fill-rule="evenodd" d="M0 128.004v128.004l128.25-.254 128.25-.254.254-127.75L257.008 0H0zm.485.496c0 70.4.119 99.053.265 63.672s.146-92.98 0-128S.485 58.1.485 128.5M120 27.098c-5.315 1.038-15.399 5.921-19.163 9.28C91.667 44.561 87 55.768 87 69.605c0 4.617-.168 8.395-.373 8.395s-2.39-.892-4.856-1.983-7.72-2.442-11.676-3.003c-22.361-3.172-42.562 11.843-46.302 34.415-3.438 20.749 9.989 40.788 31.207 46.573 2.475.674 5.111 1.404 5.857 1.622.929.271.183 1.696-2.361 4.512-4.722 5.227-9.24 14.841-10.599 22.557-2.873 16.313 7.152 35.224 22.476 42.395 13.169 6.162 25.954 6.053 37.919-.324 6.171-3.29 14.898-11.997 17.507-17.47.864-1.811 1.855-3.294 2.201-3.294s1.337 1.483 2.201 3.294c2.609 5.473 11.336 14.18 17.507 17.47 11.965 6.377 24.75 6.486 37.919.324 15.389-7.202 25.462-26.338 22.447-42.645-1.416-7.662-5.913-17.153-10.57-22.307-2.544-2.816-3.29-4.241-2.361-4.512.746-.218 3.382-.948 5.857-1.622 24.017-6.548 37.513-31.291 29.482-54.053-3.984-11.293-15.419-22.408-26.351-25.614-10.072-2.954-22.027-1.849-33.265 3.074-1.438.63-1.689-.523-2.089-9.596-.588-13.364-2.996-19.776-10.453-27.83-6.178-6.673-14.57-11.365-23.21-12.978-6.176-1.152-8.821-1.136-15.114.093m0 10.778c-9.377 3.085-16.024 8.803-19.901 17.118-2.163 4.639-2.566 6.923-2.555 14.506.015 10.821 2.646 19.561 8.545 28.396 5.513 8.255 5.928 8.512 11.002 6.796l4.237-1.432-.225-6.956c-.145-4.476.334-8.357 1.346-10.884.864-2.16 1.915-5.943 2.336-8.407.568-3.33 1.397-4.794 3.23-5.708 6.195-3.088 8.776 4.969 5.045 15.75-3.76 10.865-2.582 14.89 5.093 17.4l5.309 1.737 3.279-3.846c7.826-9.179 13.068-25.335 11.886-36.639-1.716-16.422-13.222-27.616-29.127-28.337-3.85-.174-8.125.053-9.5.506M55.358 84.091c-8.171 2.367-18.013 12.404-20.324 20.727-3.783 13.619 2.225 28.561 14.337 35.659 10.209 5.983 27.63 6.978 40.629 2.32l6.5-2.329-.351-4.484c-.194-2.466-.464-4.605-.602-4.752s-2.556-.866-5.374-1.597c-2.819-.731-6.95-2.636-9.181-4.232s-5.954-4.054-8.274-5.461c-3.307-2.007-4.285-3.233-4.526-5.684-.634-6.419 6.472-6.688 14.513-.549C88.251 117.942 92.89 120 96.886 120c2.294 0 3.433-.78 5.115-3.502l2.164-3.502-3.083-3.893c-1.696-2.141-4.563-6.528-6.37-9.748-2.301-4.1-4.773-6.836-8.249-9.129-9.196-6.067-22.372-8.666-31.105-6.135m125.142.879c-9.374 3.09-15.409 7.609-19.212 14.385-1.807 3.22-4.682 7.617-6.388 9.771-2.977 3.759-3.037 4.017-1.478 6.395 1.945 2.968 1.797 2.957 8.078.61 3.098-1.158 8.914-2.074 15.287-2.408 9.966-.521 10.336-.465 11.822 1.802 1.178 1.799 1.28 2.814.439 4.385-1.763 3.294-4.938 4.367-13.806 4.664-8.492.286-15.859 2.77-15.642 5.274.055.634.167 2.695.25 4.581.143 3.277.403 3.503 5.857 5.088 3.139.913 7.849 2.745 10.467 4.071 5.556 2.816 10.571 3.032 19.812.854 17.191-4.052 26.981-16.72 25.786-33.367-.769-10.704-7.131-20.143-16.981-25.192-6.082-3.117-16.425-3.506-24.291-.913m-58.662 29.161c-9.206 2.579-15.479 12.129-14.637 22.283 1.633 19.688 27.57 25.978 38.571 9.354 2.34-3.535 2.728-5.153 2.728-11.359 0-6.448-.332-7.709-3.044-11.573-5.265-7.498-15.051-11.105-23.618-8.705m32.363 37.91-2.299 4.026 3.524 4.117c1.938 2.264 4.252 6.187 5.142 8.717.89 2.529 2.551 6.731 3.691 9.338 2.65 6.06 1.451 9.761-3.165 9.761-3.831 0-6.33-3.194-9.166-11.717-1.228-3.689-3.588-8.124-5.342-10.038l-3.143-3.43-5.722 1.664-5.721 1.663v8.219c0 18.403 8.623 35.009 21.629 41.651 6.615 3.379 19.507 3.532 26.527.316 5.728-2.624 11.96-8.898 15.032-15.135 3.477-7.059 3.296-18.69-.409-26.234-5.226-10.64-18.03-21.103-30.562-24.974-3.535-1.092-6.718-1.982-7.072-1.977s-1.68 1.819-2.944 4.033m-58.375.03c-2.521.99-7.451 2.363-10.955 3.05-7.706 1.51-14.046 5.869-19.765 13.588-10.107 13.642-9.315 29.622 2.049 41.331 7.729 7.965 21.025 11.054 31.951 7.425 7.295-2.423 15.918-11.035 19.947-19.921 2.93-6.462 2.95-6.634 2.306-19.368l-.65-12.848-2.875-1.084c-2.719-1.027-2.977-.885-4.767 2.625-1.041 2.041-3.845 5.39-6.23 7.443s-6.498 5.6-9.139 7.885c-4.223 3.653-5.126 4.039-7.5 3.21-2.088-.73-2.771-1.697-3.019-4.28-.279-2.894.299-3.888 4.35-7.482 8.819-7.826 13.163-12.361 13.652-14.252.283-1.093-.621-3.42-2.14-5.508l-2.63-3.615z"/><path fill-opacity=".735" fill-rule="evenodd" d="M0 128.004v128.004l128.25-.254 128.25-.254.254-127.75L257.008 0H0zm.485.496c0 70.4.119 99.053.265 63.672s.146-92.98 0-128S.485 58.1.485 128.5M115.762 27.883c-11.494 3.792-20.399 11.429-25.227 21.634-3.027 6.4-4.96 17.246-4.206 23.61l.577 4.876-2.913-1.507c-1.603-.828-5.969-2.225-9.703-3.104-19.701-4.634-38.769 4.733-47.605 23.385-2.954 6.235-3.184 7.485-3.176 17.223.008 9.326.313 11.152 2.734 16.336 5.585 11.961 14.78 19.791 27.932 23.786l6.758 2.052-3.854 5.163c-7.826 10.484-10.709 19.608-9.763 30.897 2.512 29.961 37.713 47.855 62.791 31.919 5.504-3.498 13.048-11.169 15.547-15.809.99-1.839 2.046-3.344 2.346-3.344s1.373 1.538 2.386 3.417c3.046 5.657 12.657 14.474 19.394 17.793 19.985 9.846 45.486.245 55.423-20.866 6.667-14.164 4.462-29.614-6.282-44.007l-3.854-5.163 6.758-2.052c13.152-3.995 22.347-11.825 27.932-23.786 2.421-5.184 2.726-7.01 2.734-16.336.008-9.738-.222-10.988-3.176-17.223-8.836-18.652-27.904-28.019-47.605-23.385-3.734.879-8.009 2.228-9.5 2.998l-2.71 1.401-.038-8.645c-.065-14.788-5.451-26.375-15.979-34.374-10.504-7.981-25.89-10.791-37.721-6.889m2.342 11.254c-8.13 2.574-15.894 9.863-18.428 17.3-2.152 6.317-2.192 19.443-.081 26.631 1.906 6.487 6.453 15.197 10.272 19.674l2.765 3.242 3.989-1.567 3.989-1.567-.039-6.675c-.022-3.768.702-8.853 1.664-11.675.936-2.75 1.966-6.708 2.288-8.796.716-4.65 4.023-6.687 7.949-4.899 3.414 1.556 3.988 4.962 1.995 11.839-1.922 6.631-2.914 17.353-1.745 18.856.428.55 3.024 1.771 5.77 2.713l4.992 1.713 2.266-2.713c3.745-4.484 8.976-14.364 10.664-20.145.902-3.09 1.586-9.123 1.585-14 0-7.354-.407-9.426-2.867-14.626-3.707-7.836-9.552-12.874-17.946-15.466-7.897-2.439-10.949-2.414-19.082.161m-60.37 44.909c-8.894 2.195-16.205 8.198-20.896 17.159-3.474 6.639-3.268 18.379.457 25.977 1.532 3.124 4.434 7.129 6.449 8.898 10.78 9.465 30.863 12.103 46.911 6.161 4.736-1.753 4.852-1.896 5.143-6.347l.298-4.554-5.573-1.247c-3.345-.749-7.339-2.596-9.993-4.622-2.432-1.856-6.213-4.289-8.403-5.406-4.729-2.413-5.923-5.202-3.687-8.614 2.26-3.449 6.065-3.141 12.604 1.022 13.536 8.616 17.26 9.317 20.714 3.903l2.258-3.539-3.393-3.964c-1.866-2.18-4.762-6.531-6.436-9.669-2.354-4.412-4.249-6.432-8.365-8.917-9.588-5.787-20.288-8.165-28.088-6.241m127.766-.067c-11.328 2.42-19.74 7.827-23.687 15.225-1.674 3.138-4.618 7.545-6.543 9.794-3.457 4.038-3.478 4.117-1.646 6.296 1.02 1.213 1.902 2.324 1.961 2.468.058.144 2.243-.683 4.854-1.838 3.362-1.487 6.81-2.1 11.806-2.1 3.882 0 8.002-.353 9.156-.785 2.3-.859 6.621.398 7.813 2.274 1.558 2.45.75 5.665-1.854 7.371-1.828 1.198-5.63 1.91-12.36 2.316-12.388.747-15 2.199-15 8.334v4.288l4.873 1.249c2.68.687 7.685 2.579 11.123 4.205 6.079 2.874 6.47 2.928 14.263 1.951 14.092-1.767 23.438-7.63 28.446-17.845 3.74-7.628 3.932-19.336.429-26.031-6.825-13.044-20.433-19.991-33.634-17.172m-66 31.376c-12.538 5.779-16.183 22.103-7.216 32.315 8.477 9.656 22.955 9.656 31.432 0 7.982-9.09 6.092-23.373-4.02-30.381-3.16-2.189-5.279-2.796-10.574-3.028-4.111-.179-7.76.235-9.622 1.094m34.912 36.825-2.089 3.288 3.836 4.852c2.148 2.718 4.555 7.343 5.471 10.516.9 3.115 2.251 6.552 3.003 7.637 3.349 4.831-.452 11.671-5.581 10.044-2.516-.799-6.347-7.376-8.075-13.862-1.401-5.261-7.051-12.209-9.186-11.298-.71.303-3.203 1.115-5.541 1.805l-4.25 1.253.015 7.042c.039 18.737 9.177 36.034 22.501 42.59 6.787 3.34 17.642 3.35 25.211.024 15.095-6.634 21.998-25.219 15.003-40.39-5.346-11.596-22.203-24.508-34.23-26.219-3.696-.526-4.159-.319-6.088 2.718M92 153.605c-3.575 1.278-7.895 2.34-9.6 2.36-5.984.068-16.461 9.939-21.267 20.035-6.952 14.605.187 33.499 15.14 40.071 7.201 3.165 18.322 3.274 24.923.244 6.75-3.097 13.049-9.887 17.111-18.442l3.501-7.373-.544-12.328c-.526-11.902-.629-12.36-2.97-13.25-1.333-.507-2.544-.922-2.691-.922s-1.706 2.222-3.466 4.938c-1.759 2.715-5.548 6.647-8.418 8.737s-6.039 4.817-7.042 6.062c-2.548 3.165-7.13 3.028-9.296-.278-2.21-3.373-.98-5.997 5.185-11.063 12.183-10.011 14.041-13.303 10.334-18.317-2.621-3.545-2.344-3.533-10.9-.474"/></svg>