<svg xmlns="http://www.w3.org/2000/svg" xmlns:xlink="http://www.w3.org/1999/xlink" style="width: 0; height: 0; visibility: hidden; position: absolute;" aria-hidden="true"><symbol  viewBox='0 0 1200 1200' id='add'>
    <path fill-rule="evenodd" d="M600 76.875c289.74 0 525 235.22 525 525 0 289.74-235.26 525-525 525s-525-235.26-525-525c0-289.78 235.26-525 525-525m0 75c-248.39 0-450 201.61-450 450s201.61 450 450 450 450-201.61 450-450-201.61-450-450-450m-37.5 485.63H402.98c-20.719 0-37.5-16.828-37.5-37.5 0-20.719 16.781-37.5 37.5-37.5H562.5v-161.39c0-20.719 16.781-37.547 37.5-37.547s37.5 16.828 37.5 37.547v161.39h159.52c20.719 0 37.5 16.781 37.5 37.5 0 20.672-16.781 37.5-37.5 37.5H637.5v157.64c0 20.719-16.781 37.5-37.5 37.5s-37.5-16.781-37.5-37.5z"></path>
  </symbol><symbol  viewBox='0 0 1200 1200' id='blossom'>
    <g style="stroke:current-color;stroke-width:7.91733295;stroke-opacity:1"><g style="stroke:current-color;stroke-opacity:1"><path d="M664.775 709.262c-4.899-.204-9.807 1.943-12.941 6.148l-.002.004-.002.002c-5.014 6.791-3.55 16.349 3.178 21.363l.008.006.006.004c4.495 3.254 8.63 5.795 12.556 8.198h.004l.002.002c9.372 5.682 17.144 10.41 28.01 25.343l.002.002c10.864 14.872 12.926 23.766 15.445 34.43 2.813 11.897 6.129 25.601 20.47 45.371 2.982 4.125 7.636 6.297 12.339 6.297h.32l.121-.068c2.926-.087 5.926-.981 8.477-2.864 6.787-4.952 8.316-14.508 3.363-21.302h-.002c-10.864-14.872-12.925-23.768-15.445-34.432-2.813-11.897-6.13-25.6-20.47-45.37s-26.36-27.156-36.794-33.485c-3.57-2.166-6.874-4.195-10.22-6.676v-.002h-.002a15.2 15.2 0 0 0-8.422-2.97zm-2.574 2.517a12.84 12.84 0 0 1 9.57 2.387c3.45 2.557 6.826 4.63 10.403 6.799 10.427 6.326 21.96 13.354 36.096 32.842s17.264 32.62 20.076 44.511c2.52 10.664 4.792 20.167 15.843 35.295 4.187 5.743 2.903 13.763-2.843 17.951l-.002.002-.004.002a12.7 12.7 0 0 1-7.489 2.461h-.002c-3.968 0-7.868-1.813-10.392-5.304h-.002c-14.135-19.487-17.265-32.622-20.076-44.512v-.002c-2.52-10.662-4.793-20.167-15.842-35.293l-.002-.002c-11.045-15.18-19.328-20.294-28.703-25.979l-.004-.004c-3.919-2.398-7.982-4.894-12.385-8.08l-.004-.004c-5.688-4.243-6.92-12.256-2.68-18.003l.003-.004a12.9 12.9 0 0 1 8.439-5.063zM743.85 855.23c-4.336 0-8.613-1.992-11.367-5.8-14.238-19.63-17.461-33.048-20.273-44.942-2.52-10.664-4.687-19.863-15.645-34.863-10.957-15.059-18.984-19.98-28.359-25.664-3.926-2.402-8.027-4.922-12.48-8.144-6.21-4.63-7.559-13.418-2.93-19.688 4.63-6.211 13.418-7.559 19.688-2.93 3.399 2.52 6.739 4.57 10.312 6.738 10.43 6.328 22.207 13.535 36.445 33.164s17.461 33.047 20.273 44.941c2.52 10.664 4.688 19.863 15.645 34.863 4.57 6.27 3.164 15.06-3.105 19.63a13.88 13.88 0 0 1-8.203 2.695zM526.887 703.584c-5.93.45-11.337 4.354-13.338 10.357-1.778 5.275-2.902 10.006-3.957 14.52-2.52 10.6-4.642 19.5-15.447 34.432-10.864 14.93-18.696 19.66-28.012 25.343l-.002.002h-.002c-10.364 6.383-22.447 13.71-36.79 33.483-4.951 6.796-3.42 16.353 3.372 21.304l.002.002.004.002c2.721 1.962 5.847 2.922 8.963 2.922 4.756 0 9.413-2.17 12.396-6.295l.002-.004c10.864-14.929 18.696-19.658 28.012-25.341l.002-.002h.002c10.364-6.383 22.447-13.71 36.789-33.483 14.338-19.766 17.596-33.467 20.408-45.36l.002-.01c.999-4.052 1.87-7.878 3.192-11.786l.002-.002c2.668-7.941-1.603-16.666-9.608-19.334a15.2 15.2 0 0 0-5.992-.75zm.172 2.39a12.85 12.85 0 0 1 5.058.637h.002v.002c6.76 2.254 10.344 9.582 8.09 16.29-1.372 4.056-2.257 7.96-3.25 11.99l-.002.006-.002.006c-2.813 11.895-5.882 25.024-20.018 44.511-14.133 19.485-25.725 26.455-36.103 32.846l.006-.002c-9.316 5.683-17.656 10.797-28.705 25.982l-.002.002v.002c-2.525 3.492-6.421 5.303-10.453 5.303-2.626 0-5.241-.798-7.559-2.469-5.742-4.19-7.023-12.205-2.838-17.947h.002v-.002c14.132-19.483 25.721-26.453 36.098-32.844l.004-.002c9.314-5.682 17.653-10.796 28.701-25.98l.002-.002c10.989-15.184 13.32-24.683 15.84-35.291l.002-.002v-.002c1.054-4.509 2.157-9.149 3.894-14.303v-.004c1.69-5.07 6.236-8.353 11.233-8.726zM441.68 844.75c-2.871 0-5.742-.879-8.262-2.695-6.27-4.57-7.676-13.36-3.105-19.63 14.238-19.628 26.074-26.776 36.445-33.163 9.316-5.684 17.402-10.605 28.359-25.664 10.898-15.06 13.125-24.258 15.645-34.863 1.054-4.512 2.168-9.2 3.926-14.414 2.46-7.383 10.488-11.31 17.812-8.848 7.382 2.46 11.309 10.488 8.847 17.812-1.347 3.984-2.226 7.852-3.222 11.895-2.813 11.895-5.977 25.312-20.215 44.941s-26.074 26.777-36.445 33.164c-9.317 5.684-17.402 10.605-28.36 25.664-2.753 3.809-7.03 5.8-11.425 5.8zM357 524.926c-5.917.514-11.245 4.488-13.197 10.486-2.604 8 1.795 16.607 9.793 19.21h.002c17.545 5.693 24.43 11.663 32.752 18.812l.002.002c9.254 7.909 19.987 17.107 43.181 24.662 14.935 4.86 26.038 6.127 35.358 6.146l-.002.008h.232c5.089 0 9.576-.355 13.737-.707 4.174-.294 8.06-.64 12.203-.582h.193c8.314 0 15.195-6.69 15.264-15.07v-.006c.123-8.437-6.636-15.386-15.076-15.451h-.004c-5.573-.06-10.364.356-14.983.707h-.006c-10.9.879-19.955 1.647-37.502-4.047-17.545-5.694-24.43-11.664-32.752-18.813h-.002v-.002c-9.254-7.909-19.987-17.107-43.181-24.662-2-.65-4.04-.865-6.012-.693Zm.195 2.386a12.8 12.8 0 0 1 5.073.59c22.859 7.446 33.106 16.293 42.365 24.205 8.318 7.147 15.73 13.484 33.572 19.274 17.84 5.79 27.536 5.035 38.432 4.156 4.637-.352 9.338-.757 14.779-.7h.004c7.142.055 12.803 5.874 12.695 13.018v.01c-.053 7.085-5.828 12.696-12.861 12.696h-.176c-4.29-.059-8.25.296-12.39.588l-.008.002h-.008c-4.156.35-8.568.699-13.551.699h-.002c-9.152 0-20.008-1.207-34.842-6.035-22.858-7.445-33.105-16.29-42.363-24.203l-.002-.002c-8.319-7.147-15.732-13.482-33.572-19.272l-.002-.002c-6.767-2.203-10.454-9.415-8.252-16.18a12.83 12.83 0 0 1 11.109-8.843zm108.147 74.58h.004l-.45 2.317-.224-.045zm-.222 1.158c-9.258 0-20.273-1.23-35.215-6.094-23.027-7.5-33.516-16.523-42.773-24.434-8.32-7.148-15.469-13.3-33.164-19.043-7.383-2.402-11.426-10.312-9.023-17.695 2.402-7.383 10.312-11.426 17.695-9.023 23.027 7.5 33.516 16.523 42.773 24.434 8.32 7.148 15.469 13.3 33.164 19.043s27.07 4.98 37.969 4.101c4.628-.351 9.375-.761 14.883-.703 7.793.059 14.004 6.446 13.887 14.238-.059 7.735-6.387 13.887-14.062 13.887h-.176c-4.219-.058-8.145.293-12.305.586-4.16.352-8.613.703-13.652.703zM608.9 355.813c-8.436 0-15.261 6.826-15.261 15.263 0 18.476-3.542 26.9-7.76 36.977v.002c-4.687 11.248-10.113 24.25-10.113 48.683 0 24.377 5.426 37.436 10.113 48.686l.002.008.004.006c1.636 3.797 3.14 7.446 4.35 11.363v.002l.002.004c2.033 6.483 8.068 10.683 14.562 10.684v.002c1.505 0 3.046-.192 4.594-.707h.004c7.984-2.545 12.5-11.079 9.967-19.133l-.002-.004c-1.662-5.338-3.554-9.775-5.307-14.041l-.002-.004-.002-.004c-4.218-10.077-7.758-18.5-7.758-36.918s3.54-26.843 7.758-36.92l.002-.002c4.687-11.248 10.111-24.25 10.111-48.684 0-8.436-6.827-15.263-15.263-15.263zm0 2.402a12.804 12.804 0 0 1 12.862 12.861c0 24.082-5.24 36.508-9.928 47.76-4.219 10.078-7.943 19.117-7.943 37.846 0 18.73 3.726 27.766 7.945 37.845l-.004-.006c1.762 4.288 3.619 8.638 5.238 13.844v.004c2.149 6.822-1.646 13.984-8.416 16.133l-.008.002-.01.002c-1.263.421-2.53.584-3.836.584v-.002c-5.456 0-10.553-3.53-12.271-8.996l-.002-.006c-1.25-4.044-2.789-7.774-4.431-11.586l-.006-.014c-4.687-11.247-9.922-23.734-9.922-47.748 0-24.08 5.239-36.506 9.928-47.758v-.002c4.219-10.078 7.945-19.115 7.945-37.902a12.8 12.8 0 0 1 12.86-12.861zm-4.1 168.075c-5.977 0-11.543-3.867-13.418-9.844-1.23-3.984-2.754-7.676-4.394-11.484-4.688-11.25-10.02-24.023-10.02-48.223 0-24.258 5.332-36.973 10.02-48.223 4.218-10.078 7.851-18.809 7.851-37.44 0-7.794 6.27-14.063 14.062-14.063 7.793 0 14.062 6.27 14.062 14.062 0 24.258-5.332 36.973-10.02 48.223-4.219 10.078-7.852 18.81-7.852 37.383s3.633 27.305 7.852 37.383c1.758 4.277 3.633 8.672 5.273 13.945 2.344 7.442-1.816 15.293-9.199 17.637-1.406.469-2.812.645-4.219.645zm243.59 15.626a15.15 15.15 0 0 0-6.01.693c-17.544 5.694-26.659 4.926-37.556 4.047h-.002c-12.13-.996-26.26-2.109-49.453 5.446s-33.925 16.695-43.185 24.666c-3.166 2.696-6.123 5.246-9.46 7.605h-.001l-.002.002c-6.858 4.89-8.451 14.449-3.563 21.305a15.27 15.27 0 0 0 12.461 6.422h2.457l-.27-.346c2.322-.348 4.608-1.07 6.56-2.533h.001c4.555-3.197 8.16-6.328 11.66-9.303l.002-.002.002-.002c8.32-7.148 15.206-13.119 32.752-18.813 17.545-5.693 26.662-4.925 37.559-4.046 12.13.996 26.258 2.109 49.453-5.446 7.998-2.602 12.398-11.209 9.795-19.209-1.952-5.998-7.282-9.972-13.2-10.486zm-.193 2.387a12.83 12.83 0 0 1 11.108 8.843c2.201 6.766-1.485 13.98-8.252 16.182h-.002c-22.86 7.445-36.386 6.33-48.514 5.334-10.898-.879-20.652-1.634-38.496 4.156-17.844 5.791-25.255 12.128-33.574 19.276-3.521 2.993-7.058 6.063-11.51 9.185l-.016.01-.015.012c-2.121 1.59-4.745 2.396-7.307 2.396h-.017a12.84 12.84 0 0 1-10.487-5.412h-.002c-4.134-5.798-2.797-13.815 2.998-17.95l.004-.005c3.457-2.443 6.472-5.047 9.631-7.738l.004-.002.002-.002c9.256-7.967 19.5-16.757 42.361-24.203s36.387-6.332 48.514-5.336l.002.002c10.898.879 20.65 1.632 38.494-4.158a12.8 12.8 0 0 1 5.074-.59zM711.62 610.9c-4.394 0-8.73-2.05-11.484-5.918-4.512-6.328-3.047-15.117 3.281-19.629 3.399-2.402 6.387-4.98 9.551-7.676 9.258-7.969 19.746-16.934 42.773-24.434s36.855-6.387 48.984-5.39c10.898.879 20.332 1.64 38.027-4.102 7.383-2.402 15.293 1.64 17.695 9.023s-1.64 15.293-9.023 17.695c-23.027 7.5-36.855 6.387-48.984 5.391-10.898-.879-20.332-1.64-38.027 4.102s-24.844 11.895-33.164 19.043c-3.516 2.988-7.09 6.093-11.602 9.257-2.344 1.758-5.215 2.637-8.028 2.637zM600 496.848c-35 0-67.953 13.666-92.725 38.437-24.77 24.771-38.437 57.725-38.437 92.725s13.666 67.951 38.437 92.722c24.772 24.772 57.725 38.44 92.725 38.44s67.953-13.668 92.725-38.44c24.77-24.77 38.437-57.723 38.437-92.722 0-35-13.666-67.954-38.437-92.725-24.772-24.771-57.726-38.437-92.725-38.437Zm0 2.402c34.375 0 66.695 13.402 91.025 37.732 24.331 24.331 37.735 56.653 37.735 91.028 0 34.374-13.404 66.694-37.735 91.025-24.33 24.33-56.65 37.735-91.025 37.735s-66.695-13.404-91.025-37.735c-24.331-24.33-37.735-56.65-37.735-91.025s13.404-66.697 37.735-91.028c24.33-24.33 56.65-37.732 91.025-37.732Zm0 25.719c-56.784 0-103.041 46.195-103.041 103.04 0 56.842 46.196 103.042 103.041 103.042s103.041-46.196 103.041-103.041c0-56.842-46.253-103.041-103.041-103.041zm0 2.402c55.486 0 100.639 45.1 100.639 100.639 0 55.544-45.094 100.638-100.639 100.638S499.361 683.55 499.361 628.01c0-55.544 45.157-100.639 100.639-100.639zm0 230.599c-34.688 0-67.324-13.535-91.875-38.086s-38.086-57.188-38.086-91.875 13.535-67.324 38.086-91.875 57.188-38.086 91.875-38.086 67.324 13.535 91.875 38.086 38.086 57.188 38.086 91.875-13.535 67.324-38.086 91.875S634.687 757.97 600 757.97Zm0-231.8c-56.133 0-101.84 45.645-101.84 101.84 0 56.191 45.645 101.84 101.84 101.84s101.84-45.645 101.84-101.84c0-56.191-45.703-101.84-101.84-101.84zm66.385-8.309c-3.906 0-7.819 1.49-10.801 4.471l-.002.002-.002.002c-5.969 5.91-5.964 15.598 0 21.563 2.989 2.988 6.934 4.453 10.81 4.453a15.18 15.18 0 0 0 10.747-4.45l.002-.002c5.97-5.909 5.966-15.6.002-21.564a15.08 15.08 0 0 0-10.756-4.475zm-.004 2.387a12.7 12.7 0 0 1 9.056 3.781l.004.004.002.002c5.05 5.05 5.047 13.172.004 18.16l-.002.002-.002.002a12.76 12.76 0 0 1-9.052 3.75c-3.273 0-6.593-1.23-9.112-3.75-5.05-5.05-5.048-13.17-.006-18.16l.002-.002.004-.002a12.84 12.84 0 0 1 9.102-3.787zm.009 26.902c-3.574 0-7.207-1.348-9.96-4.102-5.509-5.507-5.509-14.414 0-19.863 5.507-5.507 14.413-5.507 19.862 0 5.508 5.508 5.508 14.414 0 19.863a13.97 13.97 0 0 1-9.902 4.102zm41.038 103.467a15.4 15.4 0 0 0-4.658 1.447h-.002l-.002.002c-7.497 3.749-10.553 12.925-6.81 20.475l.005.01.004.008c.942 1.821 2.208 3.47 3.799 4.81h.002c2.76 2.384 6.21 3.57 9.707 3.606.053 0 .103.027.156.027h.002c3.634 0 7.315-1.337 10.232-3.937l.004-.004.004-.004c6.19-5.622 6.654-15.223 1.102-21.45-.21-.304-.424-.511-.592-.679a15.31 15.31 0 0 0-12.953-4.31zm.345 2.375a12.89 12.89 0 0 1 10.909 3.635c.175.176.305.322.32.344l.049.074.06.066c4.777 5.26 4.404 13.383-.85 18.16-2.472 2.203-5.587 3.328-8.63 3.329h-.002c-3.009 0-5.942-1.017-8.295-3.05l-.008-.005-.006-.004c-1.328-1.115-2.399-2.504-3.211-4.069l-.002-.006c-3.166-6.393-.597-14.087 5.732-17.252a13 13 0 0 1 3.934-1.222zm1.857 26.808c-3.281 0-6.504-1.113-9.082-3.34-1.465-1.23-2.637-2.754-3.516-4.453-3.457-6.973-.644-15.41 6.27-18.867a14.1 14.1 0 0 1 16.23 2.637c.176.176.351.351.469.527 5.214 5.742 4.804 14.648-.938 19.863-2.695 2.402-6.094 3.633-9.433 3.633zm174.82-315.39c-15.537-.354-31.482 1.31-47.593 5.024-37.822 8.66-75.133 27.972-107.843 55.74-6.419 5.402-7.245 15.085-1.782 21.502 5.403 6.413 15.082 7.239 21.497 1.78l.002-.003c24.72-20.962 56.398-39.476 90.38-48.281 33.984-8.805 70.236-7.928 104.334 9.818 31.495 16.415 58.695 48.376 70.897 83.39 10.678 35.485 7.464 77.348-8.37 109.132-17.166 34.39-45.983 56.41-78.65 69.261-32.667 12.852-69.17 16.49-101.474 14.041l.107.014c-.48-.08-.9-.076-1.252-.076-8.437 0-15.264 6.826-15.264 15.264 0 8.061 6.298 14.686 14.239 15.2 6.729.493 13.447.73 20.088.768l-.084.063h1.588c35.07 0 68.683-6.472 98.378-19.08 40.604-17.267 71.604-45.595 89.725-81.838v-.002c19.546-39.215 23.37-88.477 10.152-131.906l-.01-.014v-.016l-.178-.529v-.012c-14.87-42.899-46.862-80.497-85.776-100.752-22.467-11.695-47.219-17.897-73.112-18.488Zm-.06 2.397c25.544.58 49.929 6.7 72.063 18.222 38.312 19.941 69.952 57.108 84.613 99.409q.082.24.164.49c13.03 42.819 9.236 91.522-10.005 130.127-17.855 35.71-48.378 63.632-88.516 80.7-29.296 12.44-62.505 18.853-97.188 18.884h-.251c-7.057 0-14.235-.291-21.416-.817h-.006l-.006-.002c-6.703-.429-12-5.987-12-12.804a12.804 12.804 0 0 1 12.86-12.862c.352 0 .635.006.858.043l.053.008.053.006c32.618 2.473 69.445-1.183 102.535-14.2 33.09-13.019 62.458-35.442 79.922-70.427v-.002c16.154-32.426 19.387-74.807 8.511-110.922l-.01-.023-.01-.025c-12.407-35.641-39.927-68.007-72.057-84.753-34.69-18.054-71.623-18.933-106.047-10.013s-66.376 27.611-91.336 48.777h-.002c-5.42 4.615-13.548 3.92-18.108-1.498l-.002-.004-.002-.002c-4.614-5.42-3.917-13.548 1.5-18.107l.002-.002.002-.002c32.444-27.543 69.429-46.668 106.83-55.233h.002c15.926-3.67 31.669-5.317 46.995-4.969zm-38.816 348.24.272.36-1.153.872-.58-.765zm-.304.793c-7.09 0-14.297-.293-21.504-.82-7.324-.47-13.125-6.563-13.125-14.004 0-7.793 6.27-14.062 14.062-14.062.352 0 .703 0 1.055.058 64.922 4.922 146.66-14.59 181.29-83.965 15.996-32.109 19.219-74.238 8.437-110.04-12.305-35.332-39.668-67.5-71.484-84.082-68.789-35.8-146.37-3.515-196.05 38.613-5.918 5.04-14.824 4.278-19.805-1.64-5.039-5.918-4.277-14.824 1.64-19.805 32.579-27.656 69.728-46.875 107.34-55.488 42.716-9.844 84.2-5.215 119.88 13.359 38.614 20.098 70.43 57.48 85.196 100.08l.176.527c13.125 43.125 9.316 92.109-10.078 131.02-17.988 35.977-48.75 64.102-89.121 81.27-29.531 12.539-62.988 18.984-97.91 18.984zm-135.69-69.182c-7.054.527-13.027 5.984-13.97 13.31-1.08 8.329 4.906 15.968 13.224 17.048l.002.002h.002c18.025 2.275 36.228 6.414 55.678 12.722h.002c42.43 13.727 83.42 40.997 111.888 75.903 28.468 34.905 44.41 77.38 37.006 121.687v.002c-5.799 35.027-27.854 70.782-57.347 93.203-30.438 21.135-71.261 31.024-106.352 25.746-44.394-6.65-79.86-34.94-104.264-72.802s-37.681-85.273-37.623-129.858v-.002c0-19.733 1.752-38.818 5.194-56.844v-.002c1.586-8.312-3.895-16.282-12.145-17.869h-.002c-8.312-1.586-16.283 3.895-17.869 12.145v.002c-3.765 19.823-5.705 40.873-5.705 62.506v.004c-.117 50.696 15.347 103.914 42.377 146.136l.002.002c14.779 23.023 32.399 42.064 52.512 56.633 22.12 16.046 46.686 26.144 73.007 30.098a164 164 0 0 0 24.143 1.771h1.58l-.02-.07c35.921-.326 72.938-11.85 102.836-32.732l-.15.09a2.5 2.5 0 0 0 .72-.518l-.124.11c36.23-27.375 62.104-69.445 69.308-112.672 4.368-26.263 2.3-52.718-6.076-78.729v-.002c-7.608-23.593-20.284-46.283-37.654-67.422l-.002-.002c-31.799-38.808-77.669-69.916-125.889-85.518-21.27-6.874-41.269-11.464-61.21-13.994h-.005a15 15 0 0 0-3.074-.084zm.172 2.393c.85-.063 1.72-.04 2.598.074h.004c19.782 2.51 39.627 7.06 60.777 13.896 47.755 15.452 93.29 46.337 124.77 84.756l.001.002c17.2 20.931 29.718 43.357 37.225 66.637 8.265 25.669 10.299 51.713 5.994 77.598-7.092 42.555-32.663 84.156-68.386 111.148l-.067.051-.058.06a.5.5 0 0 0-.1.067l-.078.04-.072.05c-29.903 20.886-67.127 32.361-103.022 32.361h-.213c-7.955-.01-15.85-.584-23.572-1.736-25.945-3.897-50.13-13.837-71.953-29.668-19.847-14.376-37.266-33.186-51.9-55.984v-.002c-26.76-41.801-42.115-94.635-41.999-144.838v-.002c0-21.49 1.927-42.392 5.662-62.06v-.001c1.344-6.983 8.02-11.579 15.059-10.236 6.984 1.343 11.582 8.02 10.238 15.06-3.472 18.185-5.236 37.42-5.236 57.295-.059 45.063 13.323 92.867 38.006 131.162 24.682 38.295 60.73 67.105 105.925 73.875 35.802 5.385 77.119-4.643 108.094-26.158l.022-.014.021-.015c30.025-22.814 52.371-59 58.29-94.742v-.002c7.536-45.106-8.72-88.297-37.512-123.602-28.794-35.305-70.128-62.794-113.012-76.668h-.002c-19.574-6.348-37.933-10.527-56.117-12.822-7.031-.915-12.058-7.335-11.147-14.356v-.002c.8-6.208 5.811-10.788 11.76-11.224zM769.34 1037c-8.086 0-16.113-.586-23.965-1.758-26.133-3.926-50.508-13.945-72.48-29.883-19.98-14.473-37.5-33.398-52.207-56.309-26.895-42.012-42.305-95.039-42.188-145.49 0-21.562 1.934-42.539 5.684-62.285 1.464-7.617 8.789-12.656 16.465-11.19 7.617 1.464 12.656 8.788 11.19 16.464-3.456 18.105-5.214 37.266-5.214 57.07-.117 89.648 53.32 190.43 142.91 203.85 35.449 5.332 76.523-4.629 107.23-25.957 29.766-22.617 51.973-58.594 57.832-93.984 14.94-89.414-64.395-171.33-149.71-198.93-19.512-6.328-37.793-10.488-55.898-12.773-7.676-.996-13.184-8.027-12.188-15.703.996-7.734 8.027-13.184 15.703-12.188 19.863 2.52 39.785 7.09 60.996 13.945 47.988 15.527 93.69 46.523 125.33 85.137 17.285 21.035 29.883 43.594 37.44 67.031 8.321 25.84 10.372 52.09 6.036 78.164-7.148 42.891-32.871 84.727-68.848 111.91a1.8 1.8 0 0 1-.41.293c-30.117 21.035-67.56 32.578-103.71 32.578zM489.2 646.676c-8.437 0-15.262 6.824-15.262 15.261s6.824 15.264 15.261 15.264 15.264-6.826 15.264-15.263-6.827-15.262-15.264-15.262zm0 2.402a12.8 12.8 0 0 1 12.86 12.86 12.804 12.804 0 0 1-12.86 12.86 12.8 12.8 0 0 1-12.86-12.86 12.8 12.8 0 0 1 12.86-12.86zm0 26.922a14.03 14.03 0 0 1-14.062-14.062c0-7.793 6.27-14.062 14.062-14.062 7.793 0 14.062 6.27 14.062 14.062 0 7.793-6.27 14.062-14.062 14.062zm-113.913 9.867c-2.815 0-5.597.827-8.004 2.283l-.004.002-.006.004c-36.537 22.534-66.382 52.018-86.355 85.307-22.688 37.828-31.141 78.973-24.471 118.936 7.206 43.283 33.139 85.35 69.309 112.728l.088.068.1.05c-.158-.079.017.041.259.202.003 0 .005 0 .008.01 30.223 21.083 67.492 32.648 103.646 32.817l-.033.049h.842c8.144 0 16.23-.59 24.143-1.772 40.076-6.02 76.613-26.81 105.548-60.047v-.002c25.452-29.284 44.28-66.776 54.46-108.488v-.004c2.029-8.186-3.004-16.472-11.19-18.443-8.19-2.033-16.48 3.005-18.45 11.197-7.667 31.485-22.403 65.081-44.714 92.18-22.312 27.099-52.156 47.7-90.176 53.392-35.095 5.278-75.917-4.612-106.35-25.746-29.492-22.42-51.491-58.175-57.35-93.205-6.333-37.848 3.98-72.534 22.784-102.094 18.797-29.548 46.095-53.931 73.607-70.986a15.18 15.18 0 0 0 7.573-13.17c0-8.437-6.827-15.264-15.264-15.264zm0 2.403a12.804 12.804 0 0 1 12.861 12.86c0 4.784-2.573 8.895-6.373 11.089l-.015.01-.016.01c-27.789 17.22-55.352 41.816-74.4 71.76-19.049 29.943-29.569 65.276-23.125 103.779 5.976 35.741 28.265 71.927 58.29 94.742l.02.016.022.015c30.971 21.514 72.288 31.543 108.094 26.158 38.678-5.79 69.07-26.791 91.671-54.242s37.456-61.351 45.198-93.142v-.004a12.773 12.773 0 0 1 15.535-9.426h.004l.004.002a12.774 12.774 0 0 1 9.428 15.535v.002l-.002.002c-10.096 41.373-28.767 78.525-53.938 107.486-28.604 32.857-64.606 53.317-104.092 59.248-7.635 1.14-15.442 1.706-23.306 1.729h-.487c-35.896 0-73.06-11.474-103.082-32.42l-.011-.01-.01-.01c-.074-.049-.136-.165-.54-.367l.188.117c-35.666-26.997-61.296-68.6-68.389-111.211-6.572-39.374 1.734-79.91 24.162-117.305 19.751-32.918 49.315-62.144 85.55-84.492l.005-.002.002-.002c2.045-1.236 4.414-1.931 6.752-1.931zm55.818 347.953.116.082-1.116 1.607-.574-.402zm-.445.877c-36.152 0-73.535-11.543-103.77-32.637-.176-.117-.293-.234-.41-.293-35.918-27.188-61.7-69.023-68.848-111.97-6.621-39.668 1.758-80.508 24.316-118.12 19.863-33.105 49.57-62.461 85.957-84.902 2.226-1.348 4.805-2.11 7.383-2.11 7.793 0 14.062 6.27 14.062 14.063 0 5.214-2.813 9.726-6.973 12.129-55.312 34.277-109.75 97.969-96.973 174.32 5.918 35.39 28.066 71.367 57.832 93.984 30.703 21.328 71.777 31.289 107.23 25.957 76.699-11.484 120.47-83.203 135.88-146.48 1.816-7.559 9.434-12.188 16.992-10.312 7.559 1.816 12.188 9.433 10.312 16.992-10.137 41.543-28.887 78.867-54.2 107.99-28.77 33.047-65.038 53.672-104.82 59.648a162.5 162.5 0 0 1-23.964 1.757zM315.61 364.404c-25.893.59-50.645 6.793-73.114 18.489-38.914 20.256-70.906 57.855-85.775 100.752l-.004.008-.002.006-.176.527-.004.015-.006.016c-13.217 43.432-9.452 92.695 10.154 131.906 18.122 36.244 49.18 64.571 89.725 81.838 29.638 12.609 63.252 19.08 98.322 19.08h1.518l-.014-.058c6.688-.03 13.417-.218 20.318-.711h.002l.004-.002c22.18-1.706 43.602-5.883 63.678-12.418h.002c21.213-6.934 40.094-14.992 57.627-24.64l.004-.003.006-.002c2.6-1.458 4.81-3.666 6.215-6.346 3.94-7.435 1.009-16.672-6.416-20.607l-.008-.004-.006-.004c-4.814-2.47-10.354-2.224-14.746.322-15.741 8.686-32.827 15.976-52.21 22.282-17.776 5.77-36.782 9.5-56.493 10.959h-.002c-32.303 2.449-68.808-1.19-101.475-14.041s-61.484-34.872-78.65-69.262c-15.834-31.785-19.047-73.648-8.37-109.131 12.2-35.015 39.403-67.034 70.895-83.389 34.095-17.747 70.346-18.625 104.33-9.82s65.665 27.32 90.389 48.283l.002.002.002.002c6.412 5.396 16.033 4.63 21.492-1.781l.004-.004.002-.002c5.396-6.412 4.63-16.034-1.781-21.492l-.002-.002c-32.767-27.77-70.022-47.022-107.848-55.742-16.11-3.713-32.054-5.38-47.59-5.026zm.058 2.397c15.325-.348 31.067 1.298 46.992 4.969 37.407 8.623 74.332 27.69 106.83 55.232 5.424 4.618 6.066 12.687 1.506 18.111-4.618 5.424-12.69 6.065-18.113 1.504l-.004-.004c-24.963-21.164-56.916-39.854-91.338-48.773-34.424-8.92-71.356-8.039-106.041 10.015-32.132 16.688-59.652 49.113-72.062 84.752l-.01.024-.006.025c-10.876 36.114-7.643 78.494 8.511 110.922 17.463 34.985 46.832 57.408 79.922 70.426 33.09 13.017 69.915 16.673 102.531 14.201 19.9-1.472 39.095-5.24 57.06-11.072 19.515-6.348 36.758-13.702 52.651-22.473l.01-.006.012-.008c3.693-2.14 8.348-2.361 12.44-.264l.003.002c6.276 3.336 8.728 11.082 5.405 17.352v.004l-.002.002c-1.172 2.237-3.058 4.127-5.258 5.363-17.39 9.57-36.124 17.57-57.215 24.463-19.884 6.473-41.119 10.615-63.117 12.307-7.35.525-14.527.758-21.647.758h-.25c-34.681-.031-67.892-6.445-97.128-18.883h-.002c-40.08-17.07-70.662-44.992-88.516-80.701-19.3-38.6-23.037-87.308-10.004-130.133l.162-.485c14.662-42.298 46.302-79.465 84.613-99.408 22.137-11.522 46.522-17.642 72.065-18.222zM354.73 715.84c-34.922 0-68.379-6.445-97.852-18.984-40.312-17.168-71.133-45.293-89.121-81.27-19.453-38.906-23.203-87.891-10.078-131.02l.176-.527c14.766-42.598 46.582-79.98 85.195-100.08 35.684-18.574 77.168-23.203 119.88-13.36 37.617 8.673 74.707 27.833 107.34 55.489 5.918 5.039 6.62 13.887 1.64 19.805-5.039 5.918-13.887 6.62-19.805 1.64-49.688-42.129-127.27-74.414-196.05-38.613-31.816 16.523-59.18 48.75-71.484 84.082-10.78 35.801-7.558 77.93 8.438 110.04 34.629 69.375 116.37 88.887 181.29 83.965 19.805-1.465 38.906-5.215 56.777-11.016 19.453-6.328 36.62-13.652 52.44-22.383 4.044-2.344 9.141-2.578 13.595-.293 6.855 3.633 9.55 12.13 5.918 18.984-1.29 2.461-3.34 4.512-5.742 5.86-17.461 9.61-36.27 17.637-57.422 24.55-19.98 6.505-41.31 10.665-63.398 12.364-7.383.527-14.59.761-21.738.761zM533.5 517.885c-8.437 0-15.264 6.827-15.264 15.263s6.827 15.264 15.264 15.264 15.264-6.827 15.264-15.264-6.827-15.263-15.264-15.263zm0 2.402a12.804 12.804 0 0 1 12.861 12.861A12.804 12.804 0 0 1 533.5 546.01a12.804 12.804 0 0 1-12.861-12.862 12.804 12.804 0 0 1 12.861-12.86zm0 26.923a14.03 14.03 0 0 1-14.062-14.062c0-7.792 6.27-14.062 14.062-14.062 7.793 0 14.062 6.27 14.062 14.062 0 7.793-6.27 14.062-14.062 14.062zm66.174-385.403c-45.37.885-91.04 19.676-122.28 50.443-18.943 18.649-32.878 41.267-41.373 67.22-7.726 23.594-10.786 49.413-9.197 76.733 2.945 50.056 21.764 102.158 51.615 143.137 13.164 18.04 26.69 33.511 41.338 47.277h.002l.002.002a15.27 15.27 0 0 0 10.42 4.133v.002l.01-.002c4.06-.003 8.127-1.588 11.06-4.713l.003-.002c5.717-6.099 5.459-15.78-.697-21.558l-.002-.002c-13.184-12.427-25.497-26.486-37.528-43.014v-.002c-26.285-36.022-43.425-82.166-45.937-127.135s9.565-88.706 41.59-120.209c25.346-24.883 64.18-40.905 101.228-41.666 37.106.762 75.939 16.782 101.227 41.664 32.025 31.476 44.086 75.202 41.566 120.172s-19.658 91.129-45.914 127.176c-11.62 15.94-24.287 30.413-37.645 42.955l-.002.002-.002.002c-6.091 5.774-6.407 15.403-.634 21.557l.002.004.002.002c5.774 6.09 15.403 6.407 21.556.634v.002c14.77-13.828 28.644-29.765 41.399-47.22 29.851-40.979 48.67-93.142 51.615-143.198 1.59-27.319-1.47-53.137-9.197-76.732v-.002c-8.494-25.953-22.43-48.57-41.374-67.219-31.234-30.768-76.904-49.558-122.279-50.443h-.562zm.047 2.402h.48c44.743.873 89.893 19.464 120.64 49.752 18.674 18.382 32.396 40.648 40.776 66.256 7.625 23.28 10.657 48.792 9.082 75.846-2.915 49.553-21.595 101.34-51.158 141.921h.002c-12.676 17.348-26.457 33.171-41.102 46.883h-.002a12.837 12.837 0 0 1-18.164-.531l-.002-.002-.002-.002a12.84 12.84 0 0 1 .536-18.162l.004-.004c13.476-12.654 26.237-27.239 37.937-43.29 26.537-36.432 43.823-82.97 46.371-128.454s-9.677-89.976-42.281-122.02c-25.8-25.386-65.119-41.587-102.887-42.355h-.049c-37.71.768-77.028 16.97-102.886 42.355h-.002c-32.604 32.071-44.844 76.574-42.303 122.059s19.827 92.007 46.394 128.416c12.11 16.635 24.523 30.816 37.823 43.351h.002c5.209 4.887 5.418 13.016.59 18.166-2.452 2.612-5.875 3.953-9.309 3.955a12.87 12.87 0 0 1-8.787-3.484l-.004-.002c-14.53-13.655-27.954-29.004-41.04-46.937v-.002c-29.562-40.584-48.242-92.308-51.157-141.862-1.575-27.055 1.457-52.566 9.082-75.845 8.38-25.609 22.103-47.875 40.775-66.256 30.753-30.288 75.903-48.88 120.64-49.752zM530.21 549.55c-3.457 0-6.914-1.29-9.61-3.809-14.59-13.71-28.065-29.12-41.19-47.109-29.707-40.78-48.457-92.695-51.387-142.5-1.582-27.188 1.464-52.852 9.14-76.289 8.438-25.78 22.266-48.223 41.074-66.738 30.996-30.527 76.406-49.219 121.46-50.098h.528c45.059.88 90.469 19.57 121.46 50.098 18.809 18.516 32.637 40.957 41.074 66.738 7.675 23.438 10.723 49.102 9.14 76.29-2.93 49.804-21.68 101.78-51.387 142.56-12.715 17.401-26.543 33.28-41.25 47.05-5.683 5.332-14.53 5.04-19.863-.586-5.332-5.683-5.039-14.53.586-19.863 13.418-12.598 26.133-27.129 37.793-43.125 52.793-72.48 68.848-185.39 4.219-248.91-25.547-25.137-64.63-41.25-102.07-42.012-37.383.762-76.465 16.875-102.07 42.012-64.63 63.574-48.633 176.48 4.219 248.91 12.07 16.582 24.434 30.703 37.676 43.184 5.683 5.332 5.918 14.238.644 19.863-2.695 2.872-6.445 4.336-10.195 4.336z" style="color:current-color;fill:current-color;stroke:current-color;-inkscape-stroke:none;stroke-opacity:1" transform="matrix(1.0698 0 0 1.0698 -41.884 -41.887)"></path><path d="m599.635 157.848-.04.002c-46.41.905-92.939 20.025-124.978 51.58-19.393 19.09-33.677 42.286-42.357 68.81-7.896 24.111-11.002 50.436-9.387 78.194v.002c.66 11.214 2.226 22.512 4.395 33.767-20.397-11.264-41.66-19.67-63.18-24.63-16.414-3.784-32.688-5.488-48.569-5.126l-10.757.244.375.305c-22.715 1.836-44.48 7.98-64.47 18.385-39.789 20.713-72.27 58.87-87.536 102.592l-.08.162-.092.271-.176.528-.015.047-.026.084c-13.52 44.43-9.708 94.613 10.4 134.83 18.562 37.124 50.406 66.116 91.715 83.709 20.36 8.66 42.543 14.39 65.723 17.25-17.065 15.935-31.67 33.594-43.057 52.572v.002c-23.116 38.542-31.812 80.69-24.98 121.623 7.35 44.145 33.556 86.724 70.234 114.738l.037.127.778.541.146.113.057.027.15.106c.04.028.083.05.123.078l.936.625h.039c28.7 19.708 63.32 30.964 97.562 32.512l-.246.363h7.084l1.649 1.154.832-1.199c7.908-.058 15.767-.62 23.469-1.77h.004c41.05-6.166 78.464-27.497 107.947-61.363l.002-.004.97-1.113v-.082c14.083-16.43 26.049-35.345 35.71-56.018 4.869 10.397 10.251 20.472 16.316 29.946l.004.006.226.355.079.078c14.956 23.19 32.799 42.478 53.216 57.268 22.608 16.399 47.8 26.757 74.743 30.805h.004a168 168 0 0 0 24.726 1.814h6.793l-.088-.312c35.02-1.318 70.582-12.77 99.719-33.05h.006c.076-.052.158-.096.234-.15l-.035-.055c.194-.125.36-.248.559-.402l.04.05c.076-.056.142-.124.217-.18h.004l.125-.11c36.876-28.009 63.116-70.701 70.481-114.89v-.003c4.434-26.665 2.36-53.568-6.022-79.933v-.069l-.19-.59v-.004c-7.776-24.108-20.711-47.235-38.362-68.716l-.002-.002-.002-.002v-.002l-.121-.147-.086-.086c-7.104-8.647-14.972-16.837-23.309-24.634 23.227-2.854 45.464-8.587 65.895-17.262l.002-.002c41.37-17.593 73.157-46.591 91.717-83.711v-.006l.416-.83v-.125c19.643-40.057 23.398-89.78 9.98-133.87l-.016-.048v-.002l-.086-.281-.133-.383c-15.211-43.883-47.783-82.196-87.69-102.967-23.014-11.98-48.382-18.33-74.849-18.934-15.88-.362-32.155 1.34-48.57 5.123-21.563 4.939-42.884 13.372-63.322 24.68 2.173-11.274 3.743-22.59 4.404-33.82v-.002c1.6-27.485-1.466-53.55-9.192-77.469v-.127l-.197-.6c-8.68-26.523-22.964-49.717-42.357-68.808-32.035-31.556-78.563-50.675-124.979-51.58l-.039-.002h-.601zm.135 10.32h.382c43.69.86 87.975 19.123 117.912 48.613 18.225 17.941 31.597 39.628 39.791 64.666v.002c7.455 22.763 10.442 47.768 8.893 74.383-.809 13.747-2.985 27.673-6.164 41.502-7.652 4.763-15.172 9.88-22.477 15.467 5.99-19.003 9.871-38.633 10.965-58.158 2.596-46.334-9.9-92.082-43.457-125.063-26.633-26.205-66.74-42.702-105.584-43.492h-.209c-.375.008-.752.068-1.127.078l.145 1.193-.033.002-.145-1.191c-37.838 1.075-76.721 17.019-103.133 42.273h-.137l-1.15 1.135-.004.002c-33.555 33.008-46.07 78.767-43.48 125.102 1.085 19.429 4.934 38.96 10.873 57.87-7.254-5.525-14.72-10.575-22.307-15.288-3.171-13.803-5.343-27.704-6.15-41.432v-.002c-1.549-26.616 1.438-51.62 8.892-74.38v-.003c8.195-25.038 21.567-46.726 39.791-64.666 29.202-28.76 72.046-46.715 114.668-48.39 1.082-.043 2.163-.202 3.244-.223zm.029 27.053.146 1.187h-.05l-.143-1.185zm.096 1.191.033.002.017-.002v.004c35.995.766 74.007 16.487 98.434 40.522 31.072 30.539 42.86 73.006 40.389 117.128-2.473 44.12-19.369 89.657-45.16 125.067-8.327 11.422-17.206 22.044-26.467 31.748-9.58-5.513-19.753-9.835-30.383-12.832l.154 1.273c-.199-.057-.404-.094-.603-.15l-.153-1.273c-5.735-1.589-11.593-2.763-17.54-3.583-.298-.722-.611-1.512-.9-2.212l-.013-.034c-4.22-10.079-7.451-17.478-7.451-35.388 0-17.873 3.22-25.283 7.426-35.33l.025-.06.004-.009c2.311-5.545 4.865-11.778 6.871-19.639l-.463-3.851c.092-.417.156-.9.244-1.326l.483 3.953c1.909-7.858 3.281-17.264 3.281-29.344 0-6.743-3.536-12.676-8.828-16.11l.197 1.616c-.13-.095-.237-.215-.369-.307l-.181-1.502c-2.407-1.491-5.16-2.42-8.108-2.722l-.178-.198H608.9c-10.572 0-19.22 8.651-19.22 19.223 0 17.97-3.234 25.368-7.453 35.447l-.002.008-.305.727v.041c-4.628 11.124-10.113 24.949-10.113 49.44 0 17 2.708 28.7 5.884 38.124a133.6 133.6 0 0 0-45.011 16.125c-9.084-9.545-17.82-20.028-26.422-31.843l-.01-.012-.004-.006c-10.489-14.374-19.405-30.468-26.58-47.414-.372-1.365-.921-2.68-1.592-3.945-9.538-23.65-15.623-48.848-17.01-73.663-2.465-44.12 9.34-86.598 40.414-117.166 24.485-24.035 62.49-39.753 98.42-40.523zm9.005 165.762c5.04 0 8.903 3.863 8.903 8.902 0 23.508-4.93 34.973-9.623 46.236-4.223 10.09-8.248 20.12-8.248 39.37 0 17.491 3.351 27.325 7.127 36.552-2.353-.121-4.687-.345-7.059-.345-4.03 0-8.02.239-11.99.588-3.239-8.94-5.883-19.642-5.883-36.739 0-23.504 4.928-34.969 9.621-46.23l.002-.004.305-.733v-.033c4.106-9.84 7.945-19.834 7.945-38.662 0-5.04 3.861-8.902 8.9-8.902zm-293.142 8.584c14.98-.34 30.393 1.269 46.013 4.869 23.316 5.375 46.488 14.934 68.512 28.129 2.181 8.885 4.71 17.71 7.758 26.394-22.116-15.743-47.94-29-75.508-36.142-35.15-9.107-73.2-8.225-108.857 10.334h-.002l-.002.002c-33.171 17.229-61.21 50.31-73.973 86.96l.098-.251-.145.336-.084.357.063-.23c-11.184 37.14-7.915 80.357 8.76 113.828v.002c17.953 35.967 48.226 59.049 82.015 72.342 26.576 10.455 55.338 14.898 82.541 15.125-7.678 5.28-14.968 10.915-21.949 16.795-25.635-2.25-50.054-8.122-72.1-17.5-39.315-16.744-69.11-43.998-86.525-78.829v-.002c-18.792-37.584-22.483-85.365-9.764-127.183l.121-.365.004-.008c14.322-41.309 45.384-77.762 82.698-97.186 21.59-11.238 45.358-17.21 70.326-17.777zm568.543.006c24.968.567 48.736 6.54 70.324 17.777 37.313 19.422 68.377 55.874 82.697 97.184v.01l.123.37c12.715 41.81 8.97 89.591-9.767 127.184-17.418 34.834-47.15 62.082-86.522 78.825-22.144 9.402-46.637 15.277-72.34 17.513-6.999-5.91-14.238-11.572-21.82-16.806 27.236-.216 56.04-4.658 82.65-15.127 33.789-13.293 64.06-36.375 82.014-72.342v-.004l.416-.83v-.131c16.274-33.338 19.425-76.07 8.344-112.867l-.064-.211-.062-.147.055.149c-12.76-36.655-40.804-69.677-73.967-86.961l-.002-.002c-35.663-18.561-73.717-19.442-108.867-10.334-27.638 7.161-53.52 20.467-75.67 36.264 3.057-8.704 5.59-17.548 7.777-26.454 22.064-13.245 45.3-22.841 68.65-28.189h.003l.008-.002c15.622-3.6 31.035-5.21 46.015-4.87zM321.945 398.67c12.794.2 25.528 2.097 38 5.328 31.709 8.216 61.506 25.197 85.305 44.635 8.114 18.846 18.162 36.799 29.99 53.037v.002l.002.002c8.812 12.077 17.84 22.95 27.225 33.03a135 135 0 0 0-23.936 34.38c-.653.05-1.487.051-2.125.1h-.117l-.133.012-.025.002c-10.909.88-18.894 1.67-35.961-3.868-16.992-5.513-23.02-10.854-31.295-17.965-.034-.03-.065-.054-.1-.084l-.01-.01-.04-.035-1.063-.912h-.043c-9.08-7.736-20.533-17.027-43.38-24.469h-.003a19.1 19.1 0 0 0-7.578-.873c-7.466.649-14.17 5.68-16.62 13.205-3.267 10.043 2.3 20.933 12.333 24.198l.004.002c16.985 5.511 23.017 10.85 31.287 17.957l.107.092.01.01c9.252 7.906 20.775 17.68 44.528 25.416h.002c12.783 4.16 22.903 5.714 31.56 6.146l-.05.203h4.904l1.709.342c-.924 6.404-1.553 12.878-1.553 19.457 0 9.47 1.03 18.78 2.93 27.852-11.812 5.67-24.442 10.705-38.326 15.222-17.458 5.667-36.146 9.34-55.54 10.776l-.033.002c-31.784 2.41-67.757-1.201-99.726-13.778-31.971-12.577-59.88-33.935-76.557-67.344l-.002-.002c-15.298-30.71-18.476-71.707-8.139-106.14 11.86-33.966 38.527-65.3 68.948-81.098l.002-.002h.002c20.701-10.776 42.185-15.16 63.507-14.828zm556.16.006c21.323-.332 42.808 4.051 63.512 14.826 30.43 15.861 57.093 47.139 68.953 81.102 10.338 34.435 7.158 75.433-8.14 106.142-16.678 33.409-44.586 54.767-76.557 67.344-30.62 12.047-64.876 15.801-95.644 13.984-17.557-10.403-36.14-18.955-55.141-25.103v-.002h-.002c-14.206-4.591-27.857-8.086-41.336-10.732.81-6.007 1.371-12.07 1.371-18.227 0-8.03-.81-15.932-2.18-23.688.536-.455 1.129-.943 1.65-1.386l.02-.018.06-.05.042-.036c8.273-7.11 14.303-12.45 31.293-17.963 17.06-5.536 25.11-4.746 36.011-3.867 12.14.997 27.25 2.11 51.002-5.627 10.034-3.264 15.602-14.155 12.334-24.197-2.448-7.526-9.155-12.557-16.62-13.205l-5.26-.457.158.793c-.828.152-1.657.27-2.475.537l.002-.002c-17.06 5.536-25.109 4.746-36.012 3.867h-.008l-.008-.002-.146-.012h-.05c-12.107-.992-27.169-2.053-50.792 5.641-16.092 5.241-26.347 11.375-34.316 17.28-5.86-11.218-13.377-21.617-22.346-30.973a358 358 0 0 0 27.2-32.909l.001-.002v-.002c11.807-16.207 21.842-34.133 29.947-52.95 23.824-19.499 53.689-36.542 85.475-44.778 12.472-3.232 25.208-5.129 38.002-5.328zM443.018 411.88a281 281 0 0 1 23.906 18.137c.786.67 1.336 1.481 1.832 2.308.282.693.552 1.39.84 2.08.791 2.745.379 5.762-1.621 8.149-3.241 3.798-8.735 4.229-12.536 1.041l-.002-.002c-.505-.428-1.057-.837-1.568-1.264-4.179-9.95-7.865-20.116-10.851-30.449zm313.863.094c-2.994 10.352-6.685 20.539-10.873 30.506-.075.062-.156.123-.23.185h-.063l-1.102.94-.008.006c-3.743 3.187-9.208 2.724-12.398-.942l-.156-.156c-3.186-3.781-2.701-9.306 1.058-12.47l.018-.016.027-.024a280 280 0 0 1 23.727-18.029zM723.775 448.6c.16.205.268.435.438.635 3.998 4.74 9.874 6.976 15.676 6.68-6.793 14.018-14.596 27.452-23.547 39.74l-.03.039a348 348 0 0 1-26.283 31.81c-4.457-4-9.079-7.756-13.957-11.096a325 325 0 0 0 25.875-31.199v-.002c8.258-11.336 15.5-23.695 21.828-36.607zm-247.63.2c6.314 12.842 13.534 25.134 21.763 36.411 8.388 11.523 16.965 21.832 25.858 31.317-.262.179-.506.387-.766.568-.27.177-.513.384-.773.574-4.277 3.027-8.37 6.342-12.315 9.887-9.03-9.708-17.742-20.197-26.289-31.906l-.043-.059c-8.949-12.285-16.748-25.707-23.539-39.713 5.824.336 11.742-1.879 15.797-6.64l-.211.228.123-.121.11-.13c.11-.132.178-.284.284-.417zM600 503.208c3.73 0 7.425.22 11.096.541.73 1.912 1.524 3.64 2.185 5.764l.014.045c1.507 4.785-1.075 9.645-5.824 11.162l-.086.029c-.796.265-1.603.378-2.572.379h-.012c-3.75 0-7.304-2.43-8.496-6.225-1.243-4.023-2.763-7.671-4.32-11.304 2.665-.169 5.32-.391 8.015-.391zm-18.652 1.527c.251.61.509 1.314.756 1.907l.103.414.148.222c1.504 3.498 2.832 6.797 3.92 10.23v.23l.42.84-.236-.587c.417 1.33 1.01 2.551 1.676 3.719-12.636 1.405-24.573 5.083-35.506 10.518-.318-6.53-3.898-12.196-9.172-15.428 11.845-6.046 24.602-10.082 37.89-12.065zm41.392.604c5.004.917 9.927 2.112 14.746 3.625l-.16-1.33c.213.065.415.158.627.224l.164 1.33a123 123 0 0 1 18.31 7.555c-1.287.781-2.523 1.673-3.632 2.78l-.01.01c-3.512 3.482-5.31 8.026-5.53 12.638-2.209-1.095-4.422-2.178-6.714-3.121l.162 1.336c-.219-.092-.45-.156-.67-.246l-.16-1.334c-6.182-2.497-12.631-4.456-19.317-5.766 3.22-4.702 4.423-10.734 2.584-16.576l-.095-.3-.045-.09c-.084-.264-.176-.476-.26-.735zm45.35 19.2c1.65.326 3.241.967 4.533 2.272l.008.008.012.012.002.002c3.549 3.549 3.535 9.068.02 12.547l-.009.008-.01.01-.002.002a8.77 8.77 0 0 1-6.254 2.59 9 9 0 0 1-3.437-.695c-3.159-3.667-2.95-8.907.578-12.254l.004-.004.004-.004.03-.028.04-.04c1.515-1.424 2.985-2.956 4.48-4.426zm-136.428.062c1.519 1.497 3.01 3.054 4.55 4.507l.009.006.004.004c3.562 3.346 3.71 8.697.578 12.291-1.019.391-2.12.641-3.303.641-5.04 0-8.902-3.863-8.902-8.902 0-2.493.954-4.69 2.52-6.282.145-.105.287-.217.433-.322 1.126-1.008 2.543-1.62 4.111-1.943zm-174.13 6.656a8.85 8.85 0 0 1 3.509.408c22.313 7.267 31.749 15.529 41.02 23.451 8.32 7.148 16.585 14.08 34.921 20.03 16.646 5.401 26.995 5.254 36.924 4.53a134 134 0 0 0-5.486 18.044c-1.139.036-2.101.17-3.299.17h-.002c-8.803 0-19.139-1.129-33.615-5.84h-.002c-22.305-7.265-31.742-15.523-41.01-23.444-8.151-7.003-16.379-13.784-33.937-19.652l-.09-.09-.903-.293h-.002c-4.75-1.547-7.253-6.45-5.71-11.191a8.83 8.83 0 0 1 7.681-6.123zM600 531.33c.283 0 .557.04.84.043v.078h1.562a96 96 0 0 1 38.903 9.256l-.17-1.408c.234.109.464.225.697.336l.172 1.41c32.308 15.648 54.676 48.655 54.676 86.965 0 9.598-1.447 18.85-4.051 27.601-.175.503-.306 1.021-.44 1.543-5.655 17.91-16.374 33.564-30.49 45.28l.17 1.394c-.28.228-.585.423-.867.649l-.166-1.366c-16.617 13.477-37.77 21.578-60.836 21.578-42.078 0-77.771-26.921-91.059-64.441-.067-.222-.16-.431-.236-.65-3.43-9.912-5.385-20.51-5.385-31.588 0-53.398 43.343-96.68 96.68-96.68zm90.318 10.756c8.637 9.067 15.744 19.18 21.22 30.074-.618.526-1.34 1.095-1.936 1.608-2.859 2.434-5.48 4.607-8.26 6.646h-.26l-1.16 1.162.5-.424a19 19 0 0 0-3.06 2.752 107.3 107.3 0 0 0-19.87-29.433l5.297-4.96c2.55-2.387 5.035-4.918 7.53-7.425zm-180.693.064c2.464 2.479 4.915 4.978 7.441 7.352l.012.01a19.3 19.3 0 0 0 6.356 3.937 107.7 107.7 0 0 0-16.928 22.688c-3.471-4.57-8.874-7.61-15.026-7.66h-.008c-.452-.005-.754.055-1.197.056 5.177-9.506 11.698-18.338 19.35-26.382zm338.236 6.098a8.83 8.83 0 0 1 7.68 6.123c1.542 4.74-.96 9.641-5.707 11.19l-.006.003h-.004c-22.311 7.267-34.834 6.149-46.963 5.153h-.006c-10.905-.88-21.694-1.617-40.037 4.336-16.542 5.368-24.837 11.548-32.42 17.951-1.64-6.133-3.628-12.147-6.113-17.969 7.486-5.82 16.83-11.602 33.054-16.887 22.247-7.245 34.76-6.155 46.856-5.162l.115.01c10.906.88 21.693 1.615 40.035-4.338l.002-.002a8.9 8.9 0 0 1 3.514-.408zm-356.488 30.549h.022c5.005.04 8.837 3.979 8.761 9v.04c-.037 4.948-3.974 8.765-8.902 8.765h-.121c-4.27-.059-8.112.284-11.961.562 1.567-6.178 3.515-12.232 6.008-18.072 2.055-.102 3.954-.319 6.193-.295zm224.59 3.113c2.347 5.902 4.191 11.998 5.607 18.225-1.609 1.292-3.02 2.59-4.867 3.886l-.021.014-.131.1c-1.381 1.035-3.2 1.603-4.932 1.603h-.012c-2.79-.003-5.499-1.264-7.267-3.748l-.004-.004-.002-.004c-2.896-4.065-1.983-9.529 2.076-12.426l.268-.191.129-.129c3.305-2.373 6.198-4.832 9.078-7.287zM478.19 597.191h.313l-.072.006-.022.002-.187.014c-.045.004-.098.004-.143.008zm16.987 9.315A107 107 0 0 0 493 628.01c0 5.267.51 10.405 1.25 15.47-1.62-.447-3.293-.763-5.05-.763-4.727 0-9.013 1.794-12.37 4.65-.986-6.356-1.63-12.798-1.63-19.357 0-6.92.688-13.716 1.784-20.406.66-.054 1.512-.056 2.15-.11 4.22-.297 7.985-.626 11.872-.572h.248c1.342 0 2.653-.15 3.924-.416zm226.843 4.924-.101.074c.033-.023.057-.045.09-.069q.006-.003.011-.006zm1.602.287c.697 5.368 1.178 10.786 1.178 16.293 0 5.543-.49 10.997-1.196 16.4-3.483-.565-6.968-1.153-10.443-1.594-1.075-.139-2.135-.126-3.187-.086-.228.01-.464-.036-.69-.019-1.203.09-2.372.312-3.512.62.725-5.018 1.227-10.107 1.227-15.321 0-4.354-.34-8.624-.85-12.844 1.784.531 3.61.895 5.47.895h10.562l-1.85-2.374c.316-.158.628-.322.94-.505h.345l1.024-.72c.03-.02.053-.042.084-.064.005-.004.01-.004.015-.008l-.008.002c.327-.23.574-.447.89-.675zm-10.46 31.1q-.004-.001-.007-.003l-.248-.03h-.254zm18.89 13.599c12.951 2.555 26.101 5.926 39.861 10.373 14.4 4.66 28.546 10.906 42.225 18.21a19.21 19.21 0 0 0-8.598 15.415c-12.675-6.7-25.76-12.42-39.064-16.725l-.594-.193h-.049c-13.328-4.296-26.12-7.55-38.705-9.95.455-1.037.843-2.099 1.107-3.19 1.508-4.571 2.806-9.211 3.817-13.94zm-241.76.459c1.47-.043 2.982.284 4.426 1.018 1.381.737 2.38 1.818 3.183 3.015.04.355.2.66.2 1.03 0 5.04-3.864 8.902-8.903 8.902s-8.9-3.863-8.9-8.903c0-.338.15-.618.183-.945 1.838-.959 3.725-1.87 5.528-2.865l.062-.035.047-.028a8.86 8.86 0 0 1 4.174-1.189zm218.037.037a8.94 8.94 0 0 1 7.545 2.51l.04.058.27.297c2.298 2.533 2.77 5.923 1.723 8.895-.122.354-.254.704-.379 1.057-.36.709-.883 1.343-1.445 1.957-2.144-.322-4.297-.709-6.436-.979-4.698-.611-7.943-4.679-7.685-9.285.838-1.492 1.979-2.827 3.64-3.66a9 9 0 0 1 2.715-.848zm-213.728.889q.245.137.396.213l-.266-.121-.033-.02zm-24.245 8.234c1.675 5.724 3.782 11.29 6.2 16.73-11.956 5.545-24.57 10.554-38.295 15.04h.006c-14.412 4.69-29.571 8.119-45.223 10.279.855-2.177 1.465-4.476 1.465-6.95 0-3.987-1.236-7.699-3.336-10.779 14.339-2 28.248-5.156 41.496-9.457l.002-.002c13.539-4.404 25.966-9.344 37.686-14.86zm224.297 11.707c.392.488.874.913 1.317 1.365l-.164.075 1.37 1.183.016.012.012.01.031.021c3.494 2.993 7.854 4.48 12.196 4.526-1.248-.013-1.182.027.197.027h.002c.484 0 .964-.095 1.447-.133-5.872 11.432-13.485 22.042-22.851 31.409-.215.214-.453.393-.668.605-.677-.415-1.426-.917-2.084-1.316h-.002a144 144 0 0 1-8.315-5.426v-1.826h-3.08a19 19 0 0 0-2.256-1.19c9.203-8.367 16.98-18.25 22.832-29.342zm-189.299.022c4.43 8.39 9.978 16.072 16.385 22.963-5.43 1.889-9.992 6.103-11.945 11.96l-.002.003c-.122.36-.191.671-.307 1.027-7.567-7.981-14.023-16.732-19.16-26.147 3.05-1.54 6.112-3.071 9.082-4.7l.076-.026.328-.184c2.162-1.213 3.962-2.95 5.543-4.896zm195.133 3.496c-.041.004-.445.058-.445.058v-.004c.094-.01.375-.044.445-.054zm22.713 2.017c12.97 2.375 26.19 5.72 40.094 10.229h.004l.031.012c41.669 13.487 82.085 40.39 110.008 74.627 27.931 34.247 43.354 75.542 36.17 118.533l-.002.008c-5.601 33.83-27.169 68.867-55.77 90.64-29.543 20.487-69.534 30.14-103.433 25.041h-.004c-43.073-6.452-77.578-33.884-101.522-71.033-23.942-37.147-37.05-83.912-36.992-127.707v-.008c0-14.177.941-27.991 2.744-41.31 17.349-1.854 34.005-6.971 49.188-15.118.549.338 1.21.814 1.748 1.143l.066.039c.073.044.135.085.207.129l.725.443h-.012c8.89 5.392 15.735 9.689 25.942 23.717l.025.035c10.542 14.439 12.252 22.31 14.771 32.977v.002c2.817 11.912 6.437 26.544 21.118 46.783 3.742 5.172 9.623 7.932 15.543 7.932h1.361l.537-.303c3.225-.315 6.499-1.286 9.361-3.397 8.51-6.217 10.441-18.293 4.221-26.826l-.027-.037c-10.536-14.432-12.246-22.309-14.766-32.973-2.816-11.913-6.439-26.544-21.119-46.783-9.982-13.76-19.015-21.643-27.113-27.402 11.407-11.602 20.403-24.947 26.896-39.393zm-242.18 8.791a135.7 135.7 0 0 0 23.456 31.463c.589.59 1.24 1.091 1.837 1.668-.184.775-.401 1.608-.578 2.362-2.515 10.587-4.293 18.49-14.793 33.002-10.197 14.014-17.097 18.32-25.947 23.716h.012l-.824.508-.114.07-.017.01-.04.026c-10.34 6.368-23.206 14.276-37.878 34.504-6.214 8.537-4.276 20.617 4.244 26.828l-.467-.4.455.456.58.29-.545-.33c3.391 2.444 7.349 3.67 11.278 3.67 5.959 0 11.856-2.758 15.6-7.928l.003-.006c10.195-14.009 17.095-18.313 25.944-23.71h-.012l.824-.507.113-.07.018-.01.04-.026c10.34-6.368 23.206-14.276 37.878-34.504 9.997-13.781 14.673-24.824 17.633-34.314a133.7 133.7 0 0 0 36.27 12.068c-1.704 13.85-2.65 28.1-2.651 42.647v.01c-.045 20.054 2.368 40.448 6.87 60.43-7.806 29.766-21.94 61.097-42.804 86.437-21.836 26.522-50.768 46.463-87.705 51.994h-.002c-33.903 5.099-73.894-4.555-103.433-25.041-28.598-21.772-50.114-56.804-55.774-90.648-6.153-36.77 3.816-70.387 22.219-99.317 17.7-27.824 43.268-51.069 69.293-67.742 20.398-1.928 40.158-5.855 58.787-11.863h.078l.6-.196c14.115-4.614 27.16-9.794 39.553-15.547zm343.893.036.025.004.153.023.201.021.074.006c.524.04 1.068.046 1.594.082 9.234 5.584 18.19 11.647 26.687 18.245-2.144.065-4.286.139-6.443.154l-.164-.217-.75.24c-.26.001-.514.018-.773.018h-.248c-6.806 0-13.746-.29-20.696-.79l.033.013-.363-.024c-.034-.002-.067 0-.101-.004l-.145-.012h.072c-4.647-.31-8.27-4.09-8.27-8.847 0-5.04 3.864-8.903 8.903-8.903.307 0 .45.03.211-.01zm-449.654.125h.027c5.04 0 8.902 3.863 8.902 8.902 0 3.363-1.779 6.15-4.394 7.66l-.078.045-.094.06c-.4.249-.797.533-1.197.784-.783.066-1.547.185-2.332.246h-.004c-7.25.517-14.33.748-21.362.748h-.25c-2.763-.003-5.5-.115-8.242-.2a280 280 0 0 1 24.334-16.88l.006-.004.006-.004.002-.002c1.441-.87 3.13-1.35 4.676-1.356zm-3.75.58c.095-.11-.032.043-.176.187l-.037.03c.086-.087.182-.182.213-.217zm155.844 17.113a8.9 8.9 0 0 1 3.492.44l.021.007c4.716 1.572 7.163 6.59 5.59 11.272-1.385 4.097-2.257 7.934-3.187 11.736-5.353-3.409-10.449-7.264-15.295-11.513.535-1.965.897-3.8 1.603-5.895l.008-.023c1.181-3.532 4.315-5.766 7.768-6.024zm318.105.812.117.157-.556.177zm-182.67 4.96a8.83 8.83 0 0 1 6.63 1.658l-.005-.006c3.456 2.562 6.804 4.61 10.22 6.685-4.952 4.126-10.221 7.733-15.67 11.006-1.72-1.121-3.347-2.053-5.157-3.361l-.002-.004c-3.988-2.978-4.835-8.433-1.864-12.47a9 9 0 0 1 2.621-2.36l.026-.018a8.9 8.9 0 0 1 3.2-1.13zm-328.4 4.503c6.723.485 13.495.803 20.341.803h6.508l-.054-.23c.363-.006.737-.032 1.101-.04-22.032 16.257-42.85 36.887-58.281 61.143-19.451 30.576-30.314 66.975-23.69 106.559 6.17 36.891 28.921 73.776 59.801 97.24l-.078-.06.092.074.13.093.034.024c31.852 22.126 73.975 32.38 110.937 26.822 39.765-5.954 71.065-27.61 94.143-55.64 18.138-22.03 31.243-47.994 39.871-73.78 2.64 8.823 5.787 17.453 9.248 25.93-10.068 23.685-23.213 45.101-38.935 63.191-28.058 32.228-63.18 52.145-101.692 57.93-7.193 1.073-14.561 1.601-21.99 1.656l-.936-.666-.822.672c-34.794-.115-70.906-11.283-100.037-31.533l-.04-.027-.284-.19c.737.493.446.33.137.08-.085-.068-.207-.124-.303-.191h.004c-34.833-26.37-59.965-67.211-66.873-108.71v-.001c-6.41-38.404 1.652-77.933 23.652-114.616v-.002c12.329-20.547 28.618-39.656 48.016-56.53zm530.966.024c10.74 9.348 20.72 19.372 29.483 30.066l.015.018c16.912 20.583 29.167 42.567 36.506 65.326 8.084 25.105 10.058 50.473 5.858 75.734-6.908 41.445-31.982 82.28-66.87 108.639l-.011.01-.258.182c-29.194 20.386-65.694 31.636-100.74 31.636h-.213c-7.765-.01-15.466-.57-22.985-1.691h-.004c-25.322-3.805-48.877-13.481-70.212-28.957h-.002c-19.406-14.057-36.487-32.482-50.883-54.906l-.006-.01-.002-.002c-7.424-11.597-13.85-24.139-19.406-37.19 3.397-8.36 6.48-16.932 9.113-25.762 6.332 18.935 14.745 37.14 25.363 53.614 25.143 39.01 62.15 68.675 108.666 75.644 36.96 5.56 79.083-4.694 110.94-26.82l-.131.086.123-.078.152-.112.035-.025c30.876-23.46 53.688-60.343 59.8-97.244l.001-.004.053-.32v-.082c7.59-46.276-9.157-90.49-38.403-126.35-12.362-15.158-27.045-28.76-43.062-40.615h5.033l.62.818 1.08-.818h.261c6.76 0 13.446-.313 20.086-.785zm-318.255.672c10.621 6.075 22.368 10.337 34.855 12.472a19.1 19.1 0 0 0-2.838 6.936l-.002.012-.07.359v.068c-.618 3.277-1.118 6.625-1.637 9.963-12.216-2.224-23.94-6.227-34.875-11.924.185-.767.428-1.63.604-2.375l.008-.027.002-.012c1.002-4.072 1.85-7.761 3.082-11.408l.006-.02.004-.007c.448-1.335.716-2.687.861-4.038zm97.892 4.058c.149 5.73 2.746 11.347 7.65 15.002l.06.043c.334.242.593.37.923.604a123.2 123.2 0 0 1-37.398 11.043c.239-1.368.422-2.77.681-4.125v-.002c.931-4.878-.15-9.649-2.562-13.584 10.814-1.46 21.1-4.53 30.646-8.98zm-28.084 22.565.07-.366v-.377zm35.793-7.52.027.022.098.066zm35.951-10.232c7.888 5.327 16.318 12.45 26.412 26.367 13.803 19.029 16.62 31.212 19.43 43.098h-.002c2.521 10.67 5.136 21.163 16.5 36.72 2.891 3.97 2.043 9.345-1.875 12.303l.147-.072-.246.181-.004.004-.026.018-.224.164.101-.102c-1.503 1.07-3.323 1.625-5.014 1.625h-.002c-2.761 0-5.414-1.216-7.185-3.666l-.004-.004-.01-.013c-13.778-19-16.604-31.177-19.41-43.047l-.01-.037v-.002c-2.52-10.668-5.135-21.163-16.494-36.715l-.002-.004-.182-.246-.106-.106c-10.118-13.799-18.475-19.782-26.85-24.966 5.263-3.435 10.26-7.312 15.056-11.5zM515 732.982c4.946 4.02 10.195 7.545 15.594 10.795-2.621 9.165-6.76 19.389-16.862 33.315-13.793 19.015-24.57 25.391-34.974 31.799v.002c-9.228 5.63-18.32 11.376-29.526 26.654l-1.058 1.059v.138c-1.728 1.865-4.01 2.846-6.494 2.846-1.82 0-3.578-.527-5.23-1.715-3.512-2.568-4.447-7.014-2.721-10.783h1.515v-2.565c13.41-18.171 24.005-24.581 34.205-30.863 9.237-5.635 18.334-11.377 29.551-26.674l.111-.111.172-.236.014-.02c10.217-14.119 13.325-24.011 15.703-33.64Zm84.678 2.17h.002c4.907.947 8.036 5.479 7.092 10.43-.437 2.287-.766 4.637-1.149 6.955-1.876.083-3.732.274-5.623.274-4.164 0-8.296-.204-12.385-.604.52-3.337 1.014-6.69 1.635-9.959q.001 0 .002-.002v-.006c.948-4.904 5.477-8.03 10.426-7.088zm-13.475 27.264c4.557.462 9.159.715 13.797.715 1.368 0 2.71-.159 4.072-.2a319 319 0 0 0-2.607 40.682v.006c-.018 13.998 1.383 28.226 3.846 42.366-.257-.074-.485-.199-.747-.262-6.041-1.494-12.112.151-16.628 3.804-2.738-15.32-4.311-30.761-4.276-45.955v-.012c0-14.052.913-27.801 2.543-41.144zm12.33 93.148c1.068-.163 2.195-.09 3.328.16l-.17-.083.4.095h.005l.037.01.432.108h-.198c4.407 1.192 6.992 5.329 6.317 9.783l.216-.217-.257 1.053v.006l-.006.02-.112.449v-.041a280 280 0 0 1-8.51 28.15c-3.66-10.124-6.663-20.523-9.13-31.037.146-.584.333-1.176.474-1.758l.004-.016c.874-3.635 3.742-6.156 7.17-6.681zm270.268 146.686c.009 0 .17.05.199.059-.083.056-.17.106-.254.162l.004-.072zm3.601.87.057.067-.047-.049zm.028.01.064.063.03.051-.005.014-.02-.022zm.176.27h.004l.01.02zm-547.899 4.366c.648.451 1.342.834 1.996 1.277l-.635.135s-.5-.01-.662-.025a4 4 0 0 1-.377-.064c-.184-.041-.194-.057-.28-.086-.21-.117-.259-.146-.51-.287z" style="color:current-color;fill:current-color;stroke:current-color;-inkscape-stroke:none;stroke-opacity:1" transform="matrix(1.0698 0 0 1.0698 -41.884 -41.887)"></path></g></g>
  </symbol><symbol  viewBox='0 0 1200 1200' id='cultivar'>
    <path d="M83.004 885.37a22.94 22.94 0 0 0 16.246-6.73c17.195-17.207 35.664-30.215 55.066-40.246l207.37 207.37c-10.02 19.39-23.16 37.8-40.344 54.996-8.988 8.976-8.965 23.52 0 32.484 4.48 4.511 10.383 6.753 16.254 6.753 5.879.012 11.746-2.257 16.246-6.742 81.863-81.863 87.336-183.77 80.762-286.43-9.707-.816-19.344-1.633-28.906-2.437-5.867-.516-11.629-.996-17.375-1.489 1.945 28.164 2.965 55.727 1.824 82.391l-115.46-115.46c42.648-1.8 87.551 1.97 133.49 5.914 118.64 10.246 241.25 20.746 334.54-71.449.192-.19.406-.3.59-.492.11-.097.215-.238.313-.336.085-.086.156-.132.226-.203.11-.11.203-.254.29-.347 96.573-97.43 85.811-223.01 75.323-344.46-3.562-41.352-7.008-81.84-6.238-120.42l108.74 108.73c-24.29.492-49.332-.66-74.88-2.508.313 3.898.661 7.777 1.009 11.723a3772 3772 0 0 1 2.832 34.586c101.77 6.851 202.87 2.746 282.35-76.715 8.964-8.977 8.964-23.531 0-32.496-8.989-8.977-23.52-8.977-32.508 0-17.195 17.184-35.785 30.109-55.535 39.758l-206.23-206.23c9.672-19.777 22.453-38.473 39.66-55.68 8.988-8.977 8.988-23.52 0-32.484-8.965-8.965-23.496-8.965-32.484.012-93.406 93.37-82.777 216.54-72.492 335.68 3.695 42.758 7.246 84.625 6.265 124.61l-106.92-106.95c23.891-.575 48.457.445 73.5 2.183-.468-5.773-.96-11.53-1.476-17.375-.817-9.539-1.633-19.21-2.426-28.922-102.3-6.539-203.83-1.117-285.55 79.957-.11.11-.238.18-.336.277s-.168.192-.254.266c-.098.098-.191.18-.277.266-.121.12-.192.254-.301.36-78.637 79.331-82.715 180.02-75.875 281.41 11.566.898 23.062 1.87 34.465 2.855 3.996.336 7.883.648 11.844.996-1.8-24.984-2.965-49.477-2.555-73.262l107.14 107.14c-38.102.648-78.023-2.735-118.79-6.254-121.84-10.484-247.84-21.344-345.37 76.19-8.976 8.977-8.976 23.52 0 32.497 4.485 4.488 10.38 6.719 16.246 6.719zm746.32-707.69 192.93 192.95c-22.031 7.8-45.254 12.348-69.422 14.531l-137.92-137.92c2.188-24.215 6.602-47.508 14.414-69.562zm-187.03 244.14 135.79 135.84c-2.27 24.059-6.672 47.328-14.41 69.48l-190.79-190.79c22.141-7.727 45.359-12.25 69.41-14.531zm-92.402 24.035 204.2 204.19c-8.437 17.688-19.43 34.559-33.48 50.496l-221.24-221.24c15.938-14.051 32.832-24.996 50.52-33.445zm-66.91 49.562 221.55 221.55c-15.637 14.34-32.34 25.488-49.969 33.984l-205.63-205.62c8.48-17.617 19.703-34.297 34.043-49.918zm-57.707 142.69c2.09-24.277 6.527-47.594 14.219-69.719l192.17 192.16c-22.152 7.715-45.539 12-69.828 14.102zm-180.73 174.06 143.24 143.26c-2.746 23.543-7.8 46.234-16.105 67.848l-194.93-194.93c21.613-8.305 44.27-13.426 67.789-16.176z"></path>
  </symbol><symbol  viewBox='0 0 1200 1200' id='dark-mode'>
    <path d="M1158.3 728.82a44.1 44.1 0 0 0-22.562-21.703 44.13 44.13 0 0 0-31.285-1.262 440.33 440.33 0 0 1-255.57 8.153 440.4 440.4 0 0 1-217.01-135.21c-57.383-65.543-94.023-146.63-105.31-233s3.3-174.15 41.902-252.22a44.08 44.08 0 0 0 2.914-31.254 44.06 44.06 0 0 0-18.613-25.277 44.05 44.05 0 0 0-30.715-6.508 573.13 573.13 0 0 0-361.12 210.9 573.1 573.1 0 0 0-121.73 400.1c11.266 143.94 76.438 278.31 182.48 376.3a573.16 573.16 0 0 0 389.54 152.16 576.93 576.93 0 0 0 342.32-114.45 576.84 576.84 0 0 0 207.26-295.48v-.043a44.14 44.14 0 0 0-2.496-31.203zm-290.89 279.03a488.84 488.84 0 0 1-256.18 73.887l-.008-.008c-114.94-.297-226.05-41.367-313.53-115.92-87.484-74.543-145.66-177.73-164.19-291.17a485.3 485.3 0 0 1 63.066-328.28 485.2 485.2 0 0 1 260.39-209.61A521.3 521.3 0 0 0 434.9 287.67c.149 140.36 55.973 274.91 155.23 374.19 99.25 99.25 233.82 155.08 374.18 155.23a522 522 0 0 0 82.363-6.57 488.75 488.75 0 0 1-179.27 197.34z"></path>
  </symbol><symbol  viewBox='0 0 1200 1200' id='female'>
    <path fill-rule="evenodd" d="M600 650c110.45 0 200-89.547 200-200 0-110.46-89.547-200-200-200-110.46 0-200 89.543-200 200 0 110.45 89.543 200 200 200m300-200c0 148.65-108.11 272.05-250 295.85v54.148h90c5.523 0 10 4.477 10 10v80c0 5.523-4.477 10-10 10h-90v140c0 5.523-4.477 10-10 10h-80c-5.523 0-10-4.477-10-10v-140h-90c-5.523 0-10-4.477-10-10v-80c0-5.523 4.477-10 10-10h90V745.85C408.11 722.049 300 598.65 300 450c0-165.68 134.32-300 300-300s300 134.32 300 300"></path>
  </symbol><symbol  viewBox='0 0 1200 1200' id='form'>
    <path d="M956.25 337.5c20.711 0 37.5-16.789 37.5-37.5s-16.789-37.5-37.5-37.5h-412.5c-20.711 0-37.5 16.789-37.5 37.5s16.789 37.5 37.5 37.5zM422.09 268.31c13.562-15.656 11.871-39.336-3.777-52.902-15.656-13.562-39.336-11.871-52.902 3.777l-68.535 79.082-24.266-29.246c-13.223-15.938-36.863-18.14-52.805-4.914-15.938 13.223-18.141 36.863-4.914 52.805l52.5 63.281a37.5 37.5 0 0 0 28.457 13.555 37.5 37.5 0 0 0 28.742-12.938z"></path><path fill-rule="evenodd" d="M1012.5 562.5c82.844 0 150-67.156 150-150v-225c0-82.844-67.156-150-150-150h-825c-82.844 0-150 67.156-150 150v225c0 82.844 67.156 150 150 150zm75-150c0 41.422-33.578 75-75 75h-825c-41.422 0-75-33.578-75-75v-225c0-41.422 33.578-75 75-75h825c41.422 0 75 33.578 75 75zM206.25 900c0-72.488 58.762-131.25 131.25-131.25S468.75 827.512 468.75 900s-58.762 131.25-131.25 131.25S206.25 972.488 206.25 900m131.25-56.25c-31.066 0-56.25 25.184-56.25 56.25s25.184 56.25 56.25 56.25 56.25-25.184 56.25-56.25-25.184-56.25-56.25-56.25"></path><path d="M993.75 900c0 20.711-16.789 37.5-37.5 37.5h-412.5c-20.711 0-37.5-16.789-37.5-37.5s16.789-37.5 37.5-37.5h412.5c20.711 0 37.5 16.789 37.5 37.5"></path><path fill-rule="evenodd" d="M1012.5 1162.5c82.844 0 150-67.156 150-150v-225c0-82.844-67.156-150-150-150h-825c-82.844 0-150 67.156-150 150v225c0 82.844 67.156 150 150 150zm75-150c0 41.422-33.578 75-75 75h-825c-41.422 0-75-33.578-75-75v-225c0-41.422 33.578-75 75-75h825c41.422 0 75 33.578 75 75z"></path>
  </symbol><symbol  viewBox='0 0 1200 1200' id='grafting'>
    <path d="M183.21 980.72c-22.461 29.961-26.023 69.375-9.281 102.84l34.293 68.57a18.77 18.77 0 0 0 16.78 10.367h412.5c10.368 0 18.75-8.398 18.75-18.75v-441.15c0-2.887.677-5.813 1.97-8.383l78.395-156.77c24.695-49.387 33.207-48.395 70.367-35.492 7.37 86.285 79.84 154.29 168.02 154.29h37.5c10.367 0 18.75-8.398 18.75-18.75 0-93.039-75.695-168.75-168.75-168.75h-35.29l-5.585-1.332c-12.207-4.273-23.102-7.445-33.094-9.055 4.144-3.957 8.023-8.136 11.738-12.449 10.219-4.835 38.625-17.738 77.758-31.273 23.098 16.516 79.609 54.11 115.72 54.11 40.086 0 97.273-18.899 99.676-19.708 6.617-2.21 11.457-7.894 12.582-14.793s-1.688-13.82-7.258-18l-14.457-10.855c-49.125-36.844-111.49-51.168-171.32-39.227-13.82 2.758-26.512 6.055-37.668 9.77a906 906 0 0 0-43.07 15.602 178 178 0 0 0 11.137-55.105c84.434-9.172 150.38-80.852 150.38-167.68 0-10.352-8.383-18.75-18.75-18.75-93.055 0-168.75 75.711-168.75 168.75v10.352c0 46.105-22.555 89.418-60.32 115.86l-60.188 42.133c-5.832 4.105-13.105 4.54-19.406 1.273-6.317-3.28-10.086-9.507-10.086-16.633V56.252c0-10.352-8.383-18.75-18.75-18.75h-412.5c-10.367 0-18.75 8.399-18.75 18.75v218.76l-23.043 30.711c-22.461 29.961-26.023 69.355-9.281 102.84l32.324 64.613v476.81zM862.5 506.25c66.02 0 120.79 48.977 129.92 112.5h-17.418c-66.02 0-120.79-48.977-129.92-112.5zm181.86-82.406c-16.426 3.898-35.418 7.406-50.605 7.406-14.418 0-41.867-13.762-67.199-29.418 40.613-6.582 82.273 1.332 117.8 22.012zm-89.68-234.77c-8.758 56.137-53.211 100.59-109.35 109.35 8.758-56.137 53.215-100.59 109.35-109.35m-305.66 332.55c17.289 8.98 37.613 8.438 54.207-1.238-.055.093-.094.187-.148.3l-78.395 156.77c-3.883 7.762-5.926 16.461-5.926 25.145V787.5h-3.168c-69.434 0-128.08-38.289-128.08-83.586v-226.58c0-45.297 58.648-83.586 128.08-83.586h3.168v77.98c0 21.06 11.605 40.164 30.262 49.895zm-407.23-61.258-34.293-68.57c-10.352-20.699-8.156-45.055 5.738-63.582l26.773-35.715a18.73 18.73 0 0 0 3.75-11.25V74.999h375v281.25h-3.168c-91.293 0-165.58 54.32-165.58 121.09v226.57c0 66.77 74.29 121.09 165.58 121.09h3.168v300h-382.16l-29.117-58.199c-10.352-20.699-8.156-45.055 5.739-63.582l26.793-35.719a18.73 18.73 0 0 0 3.75-11.25v-487.5c0-2.906-.676-5.793-1.97-8.383z"></path><path d="m560.55 589.57-16.801-8.324-16.781-8.383c-1.781 3.563-42.789 87.844 22.273 152.89l26.512-26.512c-45.73-45.75-16.48-107.08-15.203-109.67zM289.59 446.85l20.793-31.199c-45.805-30.543-47.852-58.707-47.906-59.887l-37.48.484c0 4.875 1.836 48.77 64.594 90.602zM289.59 1121.9l20.793-31.199c-45.805-30.543-47.852-58.707-47.906-59.887l-37.48.484c0 4.875 1.836 48.77 64.594 90.602z"></path>
  </symbol><symbol  viewBox='0 0 1200 1200' id='list'>
    <path d="M99.48 699.24h75.238v48H99.48zM99.48 452.76h75.238v48H99.48zM99.48 945.72h75.238v48H99.48zM99.48 206.28h75.238v48H99.48zM273.96 699.24h826.68v48H273.96zM273.96 452.76h826.68v48H273.96zM273.96 945.72h826.68v48H273.96zM273.96 206.28h826.68v48H273.96z"></path>
  </symbol><symbol  viewBox='0 0 1200 1200' id='locale'>
    <path d="M1102.5 450c-7.5-26.25-18.75-52.5-30-75C993.75 213.75 840 101.25 660 78.75L641.25 75h-82.5l-22.5 3.75C356.25 97.5 202.5 210 123.75 375c-11.25 22.5-22.5 48.75-30 75-30 97.5-30 202.5 0 300 7.5 26.25 18.75 52.5 30 75 78.75 161.25 232.5 273.75 412.5 296.25l22.5 3.75h82.5l22.5-3.75c180-22.5 333.75-135 412.5-296.25 11.25-22.5 22.5-48.75 30-75 26.25-101.25 26.25-202.5-3.75-300M990 375H795q-28.125-112.5-90-213.75c120 30 221.25 105 285 213.75M750 600c0 48.75-3.75 101.25-15 150H461.25c-18.75-97.5-18.75-202.5 0-300H735c11.25 48.75 15 101.25 15 150m-30 225q-33.75 123.75-112.5 225h-11.25q-78.75-101.25-112.5-225zM480 375q33.75-123.75 112.5-225h11.25q78.75 101.25 112.5 225zm15-213.75Q433.125 262.5 405 375H210c63.75-108.75 165-183.75 285-213.75M150 600c0-52.5 7.5-101.25 26.25-150H390c-18.75 97.5-18.75 202.5 0 300H176.25C157.5 701.25 150 652.5 150 600m60 225h195q28.125 112.5 90 213.75c-120-30-221.25-105-285-213.75m495 213.75Q766.875 937.5 795 825h195c-63.75 108.75-165 183.75-285 213.75M813.75 750c7.5-48.75 11.25-101.25 11.25-150s-3.75-101.25-11.25-150h210c33.75 97.5 33.75 202.5 0 300z"></path>
  </symbol><symbol  viewBox='0 0 1200 1200' id='logout'>
    <path d="M805.45 358.55c-14.062-14.062-36.844-14.062-50.906 0s-14.062 36.844 0 50.906l154.55 154.55h-489.1c-19.875 0-36 16.125-36 36s16.125 36 36 36h489.1l-154.55 154.55c-14.062 14.062-14.062 36.844 0 50.906 7.031 7.031 16.219 10.547 25.453 10.547s18.422-3.516 25.453-10.547l241.45-241.45z"></path><path d="M708 924c-19.875 0-36 16.125-36 36v36c0 19.828-16.172 36-36 36H276c-19.828 0-36-16.172-36-36V204c0-19.828 16.172-36 36-36h360c19.828 0 36 16.172 36 36v36c0 19.875 16.125 36 36 36s36-16.125 36-36v-36c0-59.531-48.469-108-108-108H276c-59.531 0-108 48.469-108 108v792c0 59.578 48.469 108 108 108h360c59.531 0 108-48.422 108-108v-36c0-19.875-16.125-36-36-36"></path>
  </symbol><symbol  viewBox='0 0 1200 1200' id='lot'>
    <path d="M1010.1 415.5H869.47v-33.75h71.766c71.344-.047 129.19-57.891 129.24-129.24v-22.875c0-20.719-16.781-37.5-37.5-37.5h-84.234a128.22 128.22 0 0 0-83.625 30.984c-14.953-56.766-66.281-96.328-125.02-96.375h-84.094c-20.719 0-37.5 16.781-37.5 37.5v23.25c.328 71.156 58.078 128.68 129.24 128.76h71.766v99.234h-441.52v-33.75h72c71.25-.187 128.95-57.984 129-129.24v-22.875c0-20.719-16.781-37.5-37.5-37.5h-84.234c-30.703 0-60.375 10.969-83.625 30.984-15-56.766-66.328-96.328-125.02-96.375h-84c-20.719 0-37.5 16.781-37.5 37.5v23.25c.328 71.109 58.031 128.63 129.14 128.76h71.766v99.234h-137.53c-34.5 0-62.484 27.984-62.484 62.484v29.156a62.44 62.44 0 0 0 18.281 44.156c11.719 11.766 27.609 18.328 44.203 18.328h819.61c16.594 0 32.484-6.563 44.203-18.328 11.719-11.719 18.328-27.609 18.328-44.156V477.96c0-16.547-6.61-32.438-18.328-44.156-11.719-11.766-27.609-18.328-44.203-18.328zm-61.359-173.39h71.766v10.406c-.094 43.734-35.531 79.172-79.266 79.219h-71.766v-10.359c.094-43.734 35.531-79.172 79.266-79.266m-201 24.141c-43.547-.047-78.891-35.203-79.266-78.75v-10.266h71.766c21 0 41.156 8.344 56.016 23.25a79.08 79.08 0 0 1 23.25 56.016v10.266zm-290.48-24.141h71.766v10.359l-.047.047c-.047 43.64-35.344 79.03-78.984 79.219h-72v-10.36c.047-43.733 35.531-79.171 79.266-79.265zm-201 24.141c-43.547-.047-78.844-35.203-79.125-78.75v-10.266h71.625c21 0 41.156 8.344 56.016 23.25a79.23 79.23 0 0 1 23.203 56.016v10.266zm766.36 240.89c0 3.281-1.312 6.469-3.656 8.813s-5.531 3.656-8.86 3.656h-820.22c-6.937 0-12.516-5.578-12.516-12.47v-29.155c0-6.89 5.578-12.47 12.516-12.47h820.22c3.328 0 6.516 1.313 8.86 3.657s3.656 5.531 3.656 8.812zM1010.1 918.14H869.47v-33.75h71.766c71.344-.094 129.19-57.891 129.24-129.28v-22.734c0-20.719-16.781-37.5-37.5-37.5h-84.234c-30.656-.047-60.328 10.922-83.625 30.891-14.953-56.766-66.281-96.328-125.02-96.375h-84.094c-20.719 0-37.5 16.781-37.5 37.5v22.875c.14 71.297 57.938 129.05 129.24 129.1h71.766v99.234l-441.52.047v-33.75h72c71.25-.235 128.95-58.031 129-129.28v-22.734c0-20.72-16.781-37.5-37.5-37.5h-84.234a128.04 128.04 0 0 0-83.625 30.89c-15-56.765-66.328-96.327-125.02-96.374h-84c-20.719 0-37.5 16.78-37.5 37.5v22.875c.047 71.25 57.844 129.05 129.14 129.1h71.766v99.234h-137.48l-.047.047c-34.5 0-62.484 27.984-62.484 62.484v29.109c0 16.594 6.563 32.484 18.281 44.203s27.61 18.328 44.203 18.328h819.61c16.594 0 32.484-6.61 44.203-18.328s18.328-27.61 18.328-44.203v-29.11c0-16.593-6.61-32.483-18.328-44.202s-27.609-18.281-44.203-18.281zm-61.359-173.26h71.766v10.266-.047c-.094 43.734-35.531 79.22-79.266 79.266h-71.766V824.1c.094-43.734 35.531-79.172 79.266-79.219zm-201 24c-43.688-.094-79.125-35.438-79.266-79.125v-10.359h71.766v-.047c43.734.094 79.172 35.531 79.266 79.266v10.266zm-290.48-24h71.766v10.266l-.047-.047c0 43.688-35.297 79.125-78.984 79.266h-72V824.1c.047-43.734 35.531-79.172 79.266-79.219zm-201 24c-43.688-.094-79.078-35.484-79.125-79.125v-10.359l71.625-.047c43.734.094 79.172 35.531 79.219 79.266v10.266zm766.36 240.84c0 3.328-1.312 6.516-3.656 8.86s-5.531 3.656-8.86 3.656h-820.22a12.484 12.484 0 0 1-12.516-12.516v-29.11c0-6.89 5.578-12.515 12.516-12.515h820.22c3.328 0 6.516 1.312 8.86 3.656s3.656 5.531 3.656 8.86z"></path>
  </symbol><symbol  viewBox='0 0 1200 1200' id='male'>
    <path fill-rule="evenodd" d="M1000 215c0-8.285-6.715-15-15-15H715c-8.285 0-15 6.715-15 15v70c0 8.285 6.715 15 15 15h114.29L673.82 455.46c-49.039-34.926-109.04-55.465-173.83-55.465-165.68 0-300 134.32-300 300s134.32 300 300 300 300-134.32 300-300c0-64.789-20.539-124.79-55.461-173.82l155.46-155.46v114.29c0 8.285 6.715 15 15 15h70c8.285 0 15-6.715 15-15zM700 700c0 110.45-89.547 200-200 200-110.46 0-200-89.547-200-200s89.543-200 200-200c110.45 0 200 89.547 200 200"></path>
  </symbol><symbol  viewBox='0 0 1200 1200' id='more'>
    <path d="M307.5 600c0 81.461-66.039 147.5-147.5 147.5S12.5 681.461 12.5 600 78.539 452.5 160 452.5 307.5 518.539 307.5 600M747.5 600c0 81.461-66.039 147.5-147.5 147.5S452.5 681.461 452.5 600 518.539 452.5 600 452.5 747.5 518.539 747.5 600M1187.5 600c0 81.461-66.039 147.5-147.5 147.5S892.5 681.461 892.5 600s66.039-147.5 147.5-147.5 147.5 66.039 147.5 147.5"></path>
  </symbol><symbol  viewBox='0 0 1200 1200' id='orchard'>
    <path d="M743.92 711.89c19.754 7.273 40.402 10.957 61.609 10.957 99.238 0 179.98-80.723 179.98-179.96 0-39.445-12.637-77.004-36.023-108.02 31.691-33.277 49.477-77.23 49.477-123.84 0-99.238-80.734-179.98-179.98-179.98-14.102 0-27.973 1.61-41.496 4.812C757.6 57.714 685.971.01 603.147.01c-84.348 0-155.89 58.535-174.85 138.05-16.055-4.656-32.617-7.007-49.512-7.007-99.238 0-179.98 80.734-179.98 179.98 0 50.219 21.133 97.895 57.504 131.72-19.859 29.53-30.613 64.309-30.613 100.14 0 99.238 80.723 179.96 179.96 179.96 18.348 0 36.312-2.762 53.652-8.196 28.738 36.66 70.078 60.238 115.86 66.707v394.95c0 13.105 10.621 23.711 23.711 23.711 13.094 0 23.723-10.609 23.723-23.71v-14.567l.004-311.2v-68.652c47.965-6.011 91.969-31.344 121.31-70.008zm-255.67-38.41c-4.441-7.117-12.145-11.137-20.113-11.137-3.18 0-6.406.637-9.492 1.992-16.824 7.367-34.645 11.09-52.992 11.09-73.078 0-132.54-59.46-132.54-132.54 0-32.449 11.988-63.758 33.78-88.14a23.64 23.64 0 0 0 5.868-18.517 23.7 23.7 0 0 0-9.937-16.69c-35.45-24.853-56.605-65.427-56.605-108.5 0-73.095 59.46-132.55 132.55-132.55 20.172 0 39.73 4.57 58.152 13.608 7.093 3.504 15.504 3.156 22.379-.816a23.69 23.69 0 0 0 11.723-19.105c4.078-69.95 62.113-124.74 132.11-124.74 68.328 0 126.28 53.316 131.98 121.37a23.71 23.71 0 0 0 11.316 18.3c6.48 3.95 14.449 4.571 21.445 1.598 16.234-6.78 33.406-10.223 51.098-10.223 73.094 0 132.55 59.461 132.55 132.55 0 40.367-18.156 78.07-49.801 103.44a23.6 23.6 0 0 0-8.844 17.137 23.7 23.7 0 0 0 6.804 18.047c24.758 25.008 38.387 58.117 38.387 93.238 0 73.078-59.46 132.54-132.55 132.54-20.773 0-40.824-4.8-59.566-14.28-11.23-5.63-24.793-1.61-31.14 9.156-19.98 34.02-54.134 56.988-92.22 63.527v-243.04c0-13.094-10.633-23.711-23.723-23.711-13.094 0-23.71 10.62-23.71 23.71v242.43c-35.606-6.925-67.06-28.022-86.907-59.737z"></path><path d="M522.71 1102.8h-89.797V934.5h86.449c13.094 0 23.711-10.609 23.711-23.711 0-13.105-10.621-23.711-23.711-23.711h-86.449v-36.59c0-13.105-10.621-23.711-23.711-23.711-13.094 0-23.711 10.609-23.711 23.711v36.59h-142.25v-36.59c0-13.105-10.621-23.711-23.711-23.711-13.094 0-23.711 10.609-23.711 23.711v36.59H53.569v-36.59c0-13.105-10.621-23.711-23.711-23.711-13.094 0-23.711 10.609-23.711 23.711v47.172c-2.606 3.828-4.477 8.172-4.477 13.129 0 4.969 1.871 9.313 4.477 13.117v189.49c-2.606 3.8-4.477 8.148-4.477 13.113 0 4.969 1.871 9.313 4.477 13.117v36.625c0 13.105 10.621 23.711 23.711 23.711 13.094 0 23.711-10.609 23.711-23.711v-26.027h142.25v26.027c0 13.105 10.621 23.711 23.711 23.711 13.094 0 23.711-10.609 23.711-23.711v-26.027h142.25v26.027c0 13.105 10.621 23.711 23.711 23.711 13.094 0 23.711-10.609 23.711-23.711v-26.027h89.797c13.094 0 23.711-10.609 23.711-23.711.008-13.105-10.613-23.715-23.703-23.715zm-469.14 0V934.5h142.25v168.3zm189.67 0V934.5h142.25v168.3zM1191.6 1110.1V927.26c4.117-4.262 6.719-10.031 6.719-16.441 0-6.406-2.594-12.168-6.719-16.441v-43.859c0-13.105-10.609-23.711-23.711-23.711-13.105 0-23.711 10.609-23.711 23.711v36.59h-142.25v-36.59c0-13.105-10.609-23.711-23.711-23.711-13.105 0-23.711 10.609-23.711 23.711v36.59h-142.25v-36.59c0-13.105-10.609-23.711-23.711-23.711-13.105 0-23.711 10.609-23.711 23.711v36.59h-84.203c-13.105 0-23.711 10.609-23.711 23.711 0 13.105 10.609 23.711 23.711 23.711h84.203v168.3h-87.562c-13.105 0-23.711 10.609-23.711 23.711 0 13.105 10.609 23.711 23.711 23.711h87.562v26.027c0 13.105 10.609 23.711 23.711 23.711 13.105 0 23.711-10.609 23.711-23.711v-26.027h142.25v26.027c0 13.105 10.609 23.711 23.711 23.711 13.105 0 23.711-10.609 23.711-23.711v-26.027l142.25.004v26.027c0 13.105 10.609 23.71 23.711 23.71 13.105 0 23.711-10.608 23.711-23.71v-33.301c4.117-4.262 6.719-10.031 6.719-16.441.004-6.406-2.602-12.168-6.719-16.438zm-379.34-7.273v-168.3h142.25v168.3zm189.67 0v-168.3h142.25v168.3z"></path>
  </symbol><symbol  viewBox='0 0 1200 1200' id='rootstock'>
    <path d="M657.767 50.864h-57.732v473.99c-27.807 17.032-86.824 58.726-140.56 132.821-1.339-.18-2.713-.325-4.087-.325-47.842 0-145.475 28.748-172.709 137.63-3.869 15.513 5.533 31.206 21.046 35.074q3.525.867 7.052.867c12.945 0 24.77-8.787 28.025-21.913 13.777-55.073 51.746-77.82 80.64-87.185-19.998 37.643-37.536 81.146-50.012 131.012-3.869 15.514 5.532 31.209 21.046 35.077q3.525.868 7.052.868c12.945 0 24.77-8.788 28.025-21.914 36.486-145.91 122.515-231.356 174.44-271.425v301.511c-48.927 19.997-115.717 71.166-115.717 165.397 0 15.983 12.946 28.93 28.93 28.93 15.982 0 28.928-12.946 28.928-28.93 0-53.772 31.352-84.327 57.859-100.564v158.422c0 15.983 12.945 28.93 28.929 28.93 15.982 0 28.929-12.946 28.929-28.93V804.225c35.438 35.402 84.978 101.36 116.837 212.841 3.616 12.693 15.224 20.974 27.808 20.974 2.64 0 5.316-.362 7.955-1.121 15.369-4.376 24.263-20.395 19.85-35.764-12.367-43.248-27.265-80.458-43.212-112.389 22.925 1.844 53.337 12.44 78.108 49.577 5.57 8.353 14.755 12.874 24.084 12.874a29.05 29.05 0 0 0 16.02-4.846c13.306-8.86 16.886-26.833 8.027-40.103-47.371-71.057-116.33-80.315-158.717-73.769-38.005-57.424-76.265-89.499-96.803-104.108V452.399c35.438 35.401 84.98 101.36 116.84 212.84 3.615 12.693 15.221 20.974 27.805 20.974 2.64 0 5.316-.362 7.955-1.121 15.369-4.375 24.265-20.395 19.853-35.763-12.367-43.249-27.266-80.458-43.213-112.39 22.926 1.844 53.375 12.44 78.109 49.577 5.568 8.354 14.754 12.874 24.083 12.874a29.05 29.05 0 0 0 16.02-4.846c13.307-8.86 16.886-26.832 8.027-40.103-47.37-71.057-116.33-80.313-158.716-73.767-38.006-57.424-76.265-89.5-96.804-104.072Z" style="stroke-width:1.54288"></path>
  </symbol><symbol  viewBox='0 0 1200 1200' id='rows'>
    <path d="M825 1050a24.99 24.99 0 0 0 17.676-7.324A24.99 24.99 0 0 0 850 1025V125c0-8.93-4.765-17.184-12.5-21.652a25 25 0 0 0-25 0A25.01 25.01 0 0 0 800 125v900a24.99 24.99 0 0 0 7.324 17.676A24.99 24.99 0 0 0 825 1050zM575 1050a24.99 24.99 0 0 0 17.676-7.324A24.99 24.99 0 0 0 600 1025V125c0-8.93-4.765-17.184-12.5-21.652a25 25 0 0 0-25 0A25.01 25.01 0 0 0 550 125v900a24.99 24.99 0 0 0 7.324 17.676A24.99 24.99 0 0 0 575 1050zM325 1050a24.99 24.99 0 0 0 17.676-7.324A24.99 24.99 0 0 0 350 1025V125c0-8.93-4.765-17.184-12.5-21.652a25 25 0 0 0-25 0A25.01 25.01 0 0 0 300 125v900a24.99 24.99 0 0 0 7.324 17.676A24.99 24.99 0 0 0 325 1050z"></path>
  </symbol><symbol  viewBox='0 0 1200 1200' id='search'>
    <path d="M1094.24 1043.094 827.09 776.3c92.703-110.323 121.591-260.842 76.298-397.671-45.246-136.772-158.23-240.336-298.424-273.6-140.194-33.26-287.666 8.517-389.557 110.409-101.891 101.89-143.674 249.353-110.41 389.557 33.26 140.194 136.82 253.18 273.601 298.424 136.82 45.291 287.339 16.403 397.671-76.297l266.794 267.149c6.76 6.805 15.999 10.68 25.598 10.68s18.838-3.876 25.597-10.68c6.805-6.76 10.68-16 10.68-25.598 0-9.599-3.875-18.838-10.68-25.598zM167.308 509.862a342.494 342.494 0 0 1 342.496-342.495 342.494 342.494 0 0 1 342.495 342.495 342.494 342.494 0 0 1-342.495 342.496c-90.81-.09-177.882-36.234-242.095-100.41-64.175-64.22-100.314-151.29-100.41-242.095Z" style="stroke:#000;stroke-width:2.49969;stroke-dasharray:none;stroke-opacity:1"></path>
  </symbol><symbol  viewBox='0 0 1200 1200' id='settings'>
    <path d="M1086.5 487.5h-42.281c-28.594.094-54.422-17.062-65.344-43.5v-1.36c-11.156-26.483-5.11-57.046 15.234-77.25l29.859-29.858v-.047c4.688-4.688 7.36-11.016 7.36-17.672s-2.672-12.984-7.36-17.672l-123.98-123.66a25.02 25.02 0 0 0-17.672-7.313c-6.656 0-13.031 2.625-17.719 7.313l-29.859 30c-20.25 20.297-50.812 26.344-77.25 15.28h-1.266c-26.719-10.968-44.062-37.124-43.734-66v-42.28c0-6.61-2.625-12.984-7.312-17.672s-11.062-7.313-17.672-7.313h-175.03c-13.781 0-24.984 11.203-24.984 24.984v42.281c.094 28.594-17.156 54.47-43.641 65.344h-1.266.047c-26.484 11.11-57 5.063-77.25-15.234l-29.859-30h-.047c-4.687-4.687-11.016-7.312-17.672-7.312s-12.984 2.625-17.672 7.312l-123.66 124.13a25.02 25.02 0 0 0-7.312 17.672c0 6.656 2.625 13.031 7.312 17.72l29.86 29.858h.046c20.25 20.062 26.391 50.391 15.47 76.734l-.75 1.735v.046c-10.829 26.531-36.704 43.828-65.345 43.734h-42.28c-13.782 0-24.985 11.203-24.985 24.984v175.03c0 6.61 2.625 12.984 7.313 17.672s11.062 7.313 17.672 7.313h42.28c28.595-.094 54.423 17.062 65.345 43.5v1.36c11.109 26.483 5.062 57-15.234 77.25l-29.86 29.858v.047c-4.687 4.688-7.359 11.016-7.359 17.672s2.672 12.984 7.36 17.672l123.98 123.66a25.02 25.02 0 0 0 17.672 7.313c6.656 0 13.03-2.625 17.719-7.313l29.859-29.859v-.047c20.062-20.156 50.25-26.297 76.64-15.609l1.876.891c26.53 10.828 43.828 36.703 43.734 65.344v42.281c0 6.61 2.625 12.984 7.312 17.672s11.062 7.313 17.672 7.313h175.03c6.61 0 12.984-2.625 17.672-7.313s7.313-11.062 7.313-17.672v-42.281c-.094-28.594 17.062-54.422 43.5-65.344h1.36c26.483-11.156 57.046-5.11 77.25 15.234l29.858 29.859h.047c4.687 4.688 11.016 7.36 17.672 7.36s12.984-2.672 17.672-7.36l123.66-123.98a25.02 25.02 0 0 0 7.312-17.672c0-6.656-2.625-13.031-7.312-17.719l-29.859-29.859h-.047c-20.156-20.062-26.297-50.297-15.469-76.641l.75-1.875c10.828-26.531 36.703-43.828 65.344-43.734h42.281c6.61 0 12.984-2.625 17.672-7.312s7.313-11.062 7.313-17.672v-175.03c0-6.61-2.625-12.984-7.313-17.672s-11.062-7.313-17.672-7.313zm-24.984 174.98h-17.297c-48.984.328-93.094 29.953-111.84 75.234s-8.578 97.406 25.875 132.28l12.516 12.516-88.266 88.266-12.516-12.516c-34.828-34.594-87.047-44.859-132.37-26.062s-74.953 62.953-75.141 112.03v17.25h-124.97v-17.25c-.375-48.938-29.953-92.953-75.188-111.7s-97.312-8.625-132.19 25.734l-12.516 12.516-88.266-88.266 12.516-12.516c34.453-34.922 44.625-87.047 25.828-132.32-18.797-45.328-62.906-74.906-111.94-75.188h-17.25v-124.97h17.25c48.984-.328 93.094-29.953 111.84-75.234s8.578-97.406-25.875-132.28L229.2 317.488l88.266-88.266 12.516 12.516c34.828 34.594 87.047 44.859 132.37 26.062s74.953-62.953 75.141-112.03v-17.25h124.97v17.25c.375 48.938 29.953 92.953 75.188 111.7s97.312 8.625 132.19-25.734l12.516-12.516 88.266 88.266-12.516 12.516c-34.453 34.922-44.625 87.047-25.828 132.32 18.797 45.328 62.906 74.906 111.94 75.188h17.25zm-461.53-307.13c-64.875 0-127.08 25.781-172.97 71.672s-71.672 108.09-71.672 172.97 25.781 127.08 71.672 172.97 108.09 71.672 172.97 71.672 127.08-25.781 172.97-71.672 71.672-108.09 71.672-172.97a245.12 245.12 0 0 0-71.719-172.92 245.14 245.14 0 0 0-172.92-71.719zm0 439.26a194.62 194.62 0 0 1-137.63-57c-36.52-36.516-57-86.016-57-137.63s20.484-101.11 57-137.63 86.016-57 137.63-57 101.11 20.484 137.63 57a194.6 194.6 0 0 1 57 137.63c-.047 51.609-20.531 101.11-57.047 137.58-36.469 36.516-85.969 57-137.58 57.047z"></path>
  </symbol><symbol  viewBox='0 0 1200 1200' id='settings2'>
    <path d="M335.77 295.14v-92.699h-60v92.699c-65.52 13.859-114.86 72.121-114.86 141.71 0 69.602 49.344 127.86 114.88 141.71v407.57h60V578.55c65.531-13.859 114.86-72.109 114.86-141.71S401.306 309 335.77 295.14m-30 226.58c-46.789 0-84.863-38.074-84.863-84.875s38.074-84.875 84.863-84.875c46.801 0 84.875 38.074 84.875 84.875s-38.062 84.875-84.875 84.875M636.46 610V202.45h-60V610c-65.531 13.848-114.88 72.109-114.88 141.71s49.344 127.85 114.86 141.72v92.711h60V893.43c65.531-13.859 114.88-72.121 114.88-141.72S701.988 623.86 636.46 610m-30.012 226.58c-46.789 0-84.863-38.074-84.863-84.875 0-46.789 38.074-84.863 84.863-84.863 46.801 0 84.875 38.074 84.875 84.863 0 46.801-38.062 84.875-84.875 84.875M1052 495.73c0-69.602-49.344-127.85-114.89-141.71V202.44h-60v151.6c-65.52 13.859-114.85 72.109-114.85 141.7 0 69.602 49.344 127.85 114.86 141.72v348.67h60V637.46c65.531-13.859 114.88-72.121 114.88-141.72zm-144.88 84.879c-46.789 0-84.863-38.074-84.863-84.875s38.074-84.863 84.863-84.863c46.801 0 84.875 38.062 84.875 84.863 0 46.797-38.074 84.875-84.875 84.875"></path>
  </symbol><symbol  viewBox='0 0 1200 1200' id='shovel'>
    <path d="m1128 117.6-45.602-45.602-700.8 699.6-114-114-151.2 152.4c-75.602 75.602-75.602 198 0 273.6 75.602 75.602 198 75.602 273.6 0l151.2-151.2-114-114z"></path>
  </symbol><symbol  viewBox='0 0 1200 1200' id='star'>
    <path fill-rule="evenodd" d="M600.001 221.48 491.063 442.164a49.65 49.65 0 0 1-37.355 27.162L210.03 504.944 386.32 676.65a49.66 49.66 0 0 1 14.3 43.976L359.028 963.14l217.864-114.573a49.66 49.66 0 0 1 46.232 0l217.864 114.573-41.591-242.513a49.66 49.66 0 0 1 14.3-43.976l176.289-171.706-243.678-35.617a49.65 49.65 0 0 1-37.355-27.162zM413.528 374.814 555.459 87.283c18.217-36.915 70.854-36.915 89.071 0l141.932 287.532 317.399 46.392c40.727 5.95 56.958 56.011 27.472 84.726L901.708 729.585l54.195 315.969c6.959 40.578-35.631 71.516-72.07 52.358l-283.837-149.27-283.836 149.27c-36.44 19.158-79.03-11.78-72.07-52.358l54.194-315.969L68.66 505.933c-29.486-28.715-13.256-78.776 27.472-84.726Z" style="stroke-width:1.32448"></path>
  </symbol><symbol  viewBox='0 0 1200 1200' id='trash'>
    <path d="M950.02 262.5H787.5v-62.484c-.281-48.234-39.281-87.234-87.516-87.516h-199.97c-48.234.281-87.234 39.281-87.516 87.516V262.5h-162.52c-20.672 0-37.5 16.781-37.5 37.5s16.828 37.5 37.5 37.5h6.516v662.48c.14 23.344 9.515 45.703 26.109 62.109s39.047 25.547 62.39 25.406h510c48.704.281 88.454-38.812 89.017-87.516v-662.48h6c20.672 0 37.5-16.781 37.5-37.5s-16.828-37.5-37.5-37.5zM487.5 200.016a12.484 12.484 0 0 1 12.516-12.516h200.02-.047c3.328 0 6.516 1.313 8.86 3.656s3.656 5.531 3.656 8.86V262.5h-225zm381.52 800.02v-.047c-.562 7.266-6.75 12.797-14.016 12.516h-510c-3.469.14-6.797-1.125-9.328-3.469s-4.031-5.578-4.172-9.047V337.51h537.52zm-406.5-150.05v-349.97c0-20.719 16.781-37.5 37.5-37.5 20.672 0 37.5 16.781 37.5 37.5v350.02-.047c0 20.72-16.828 37.5-37.5 37.5-20.719 0-37.5-16.78-37.5-37.5zm200.02 0-.047-349.97c0-20.719 16.828-37.5 37.5-37.5 20.72 0 37.5 16.781 37.5 37.5v350.02-.047c0 20.72-16.78 37.5-37.5 37.5-20.672 0-37.5-16.78-37.5-37.5z"></path>
  </symbol><symbol  viewBox='0 0 1024 1024' id='tree-group'>
    <path d="M268.996 284.416c-85.735 0-156.085 69.697-156.085 155.153v.107c.08 21.931 4.945 43.438 13.926 63.22-35.416 29.98-56.563 74.309-56.693 121.65v.082c0 88.003 71.974 159.98 159.978 159.981h.014c23.265-.01 45.854-5.118 66.404-14.513v172.256H182.385v38.283H376.2v-38.283h-20.614V734.48c19.166 6.273 39.238 9.604 59.534 9.706h.149c20.96 0 41.123-3.446 60.07-9.637-5.075.352-10.15.724-15.28.727h-.021c-55.686 0-106.676-20.812-145.93-54.853-18.698 28.164-50.137 45.118-83.985 45.139-56.078 0-100.906-44.815-100.931-100.887a100.82 100.82 0 0 1 51.027-87.422l28.402-16.155-18.946-26.623c-11.462-16.109-17.632-35.28-17.716-54.956.027-53.283 42.99-96.053 97.03-96.058h.008c12.948.004 25.377 2.728 36.874 7.419 1.753-1.676 3.34-3.501 5.15-5.123-7.874-18.734-13-38.526-15.374-58.77-8.733-1.514-17.59-2.569-26.643-2.571H269z" style="stroke:none;stroke-width:.91355"></path><path d="M512.348 64.13c-109.9 0-199.84 89.143-199.839 198.587v.053l.002.054c.113 30.706 7.4 60.825 21.085 88.043-48.994 38.4-78.466 97.493-78.64 160.808v.08c0 112.914 92.168 205.081 205.081 205.082h.014c35.393-.017 69.554-9.227 99.572-25.926V921.59H395.796v59.045h406.531V921.59H618.668V645.1c28.739 11.24 59.358 17.185 90.374 17.341h.148c138.632 0 251.651-113.016 251.65-251.649.001-138.632-113.018-251.65-251.65-251.649h-.175l-.177.002c-8.429.1-16.839.655-25.206 1.599-35.8-59.394-100.63-96.593-171.275-96.614h-.004zm-.009 59.046h.01c55.47.02 105.544 32.18 128.292 82.17l9.735 21.39 23.028-4.69a192.6 192.6 0 0 1 36.012-3.852c106.617.12 192.38 85.952 192.38 192.598 0 106.693-85.837 192.556-192.519 192.602a192.6 192.6 0 0 1-88.45-22.044l-23.804-12.49-14.658 22.533a145.94 145.94 0 0 1-122.328 66.399 145.59 145.59 0 0 1-146.034-146.024 145.92 145.92 0 0 1 73.83-126.468l28.402-16.154-18.946-26.624c-16.643-23.389-25.61-51.246-25.73-79.835.015-77.28 62.57-139.506 140.78-139.511" style="stroke:none;stroke-width:.91355"></path>
  </symbol><symbol  viewBox='0 0 1200 1200' id='tree-stumps'>
    <path d="M1150.1 688.31s-36.562-18.75-90.188-72.375-52.125-194.81-52.125-196.31c0-46.125-82.5-70.312-164.06-70.312-31.312 0-63 3.187-93.188 11.625-5.063-37.875-5.25-68.25-5.25-68.625 0-46.125-82.5-70.312-164.06-70.312-48 .562-156.75 9.562-164.06 69.188-.75 5.062-4.688 31.875-10.312 62.812-21.75-4.125-45.562-6.188-69.375-6.188-47.625.563-156.94 9.375-164.06 69.188-5.25 36.562-21.562 134.81-36 163.5-28.5 57-89.438 107.44-90 108-4.5 3.75-6.375 9.938-4.313 15.562s7.313 9.375 13.312 9.375c51.375 0 91.875-10.688 119.06-21l-19.125 38.25c-2.625 5.438-1.687 12 2.625 16.312s10.875 5.25 16.312 2.625l129.94-65.062c2.063 69 13.688 71.812 21.75 73.688 1.313.375 2.625.563 4.125.563 6 0 13.125-3.188 19.312-15.375 11.438-22.875 51.188-48.562 75.375-62.25-7.312 39.375-16.688 82.688-25.5 100.12-27.562 55.125-141.94 105.38-143.06 105.94-6.187 2.625-9.562 9.187-8.25 15.75s7.125 11.25 13.688 11.25c65.438 0 138.38-17.438 179.06-28.688l-22.875 45.938c-2.625 5.437-1.687 12 2.625 16.312s10.875 5.25 16.312 2.625l129.94-65.062c2.063 69 13.688 71.812 21.75 73.688 1.313.375 2.625.562 4.125.562 6 0 13.125-3.187 19.312-15.375 12.188-24.562 57.188-52.5 80.438-65.062C808.11 951 936.17 915.562 941.8 913.875c6.188-1.687 10.312-7.312 10.125-13.688 0-6.375-4.5-11.812-10.688-13.5-.75 0-72-18.562-124.69-71.25-24.188-24.188-37.125-68.812-44.062-109.5l39.188-19.5c2.063 69 13.688 71.812 21.75 73.688q1.969.563 3.938.563c6 0 13.125-3.188 19.312-15.375 12.188-24.562 57-52.5 80.438-65.062 114.19 72.188 208.31 36 212.25 34.312 5.062-2.063 8.625-6.938 8.812-12.375s-2.812-10.688-7.687-13.125zM979.66 419.62c0 16.875-54.188 42.188-135.94 42.188-82.688-.938-138.94-24-135.38-45 1.125-5.063 13.125-14.625 22.875-18.938 23.438-11.062 62.812-20.625 112.5-20.625 81.75 0 135.94 25.312 135.94 42.188zm-508.5 187.69c22.125-17.25 52.312-23.25 80.25-27.562 51.562-6.188 108-4.313 156.56 15.188 19.125 8.25 28.125 17.625 28.125 23.812 0 16.875-54.188 42.188-135.94 42.188s-135.94-25.312-135.94-42.188c0-3.188 2.25-7.125 7.125-11.438zm110.25-357.19c57.938 0 101.81 12.75 122.62 26.062 8.625 5.437 13.312 11.062 13.312 16.125 0 16.875-54.188 42.188-135.94 42.188s-135.94-25.312-135.94-42.188 54.188-42.188 135.94-42.188zm-141.56 79.5c30 21.75 86.062 33 141.56 33s107.25-10.5 138-30.562c.937 11.438 2.25 24.375 4.312 38.438-20.25 8.812-42.562 24-43.875 48.188-6.562 42.938-14.438 90.938-25.875 133.5-43.5-5.812-88.688-4.875-131.81 4.125-15.75-47.438-18.375-97.875-21.75-147.19-5.625-22.125-31.312-38.438-66.188-48.75 2.063-11.062 3.75-21.562 5.438-30.75zm-34.312 52.688c20.625 4.312 63.75 15.75 68.25 35.812 0 16.875-54.188 42.188-135.94 42.188s-135.94-25.312-135.94-42.188c2.437-34.125 141.56-52.688 203.62-35.812zM335.6 714.748c-1.5-14.812-2.625-35.062-2.625-52.875 0-4.875-2.438-9.375-6.75-12-2.25-1.313-4.875-2.063-7.313-2.063-2.062 0-4.312.563-6.375 1.5l-112.31 56.062 18.562-37.312c2.813-5.625 1.5-12.562-3.187-16.875s-11.812-4.687-17.062-1.125c-.375.375-39 25.125-103.88 32.812 21.562-21.562 50.062-54.188 67.875-89.812 13.312-26.812 26.25-95.25 33.375-137.81 30 21.75 86.062 33 141.56 33s107.06-10.5 137.81-30.562c3 35.625 8.625 71.438 19.5 105.75-25.312 8.625-56.812 23.812-58.875 54-.375 3.188-2.25 14.625-4.688 30.188-2.062 0-4.312.563-6.187 1.5-7.125 3.563-62.062 31.688-89.625 65.438zm547.31 179.44c-46.312 3.375-117.19-.938-181.12-43.5-4.125-2.813-9.563-3.188-14.062-.938-7.125 3.563-62.062 31.688-89.625 65.438-1.5-14.812-2.625-35.062-2.625-52.875 0-4.875-2.438-9.375-6.75-12-2.25-1.312-4.875-2.062-7.313-2.062-2.062 0-4.312.562-6.375 1.5l-112.31 56.062 18.562-37.312c2.625-5.063 1.688-11.25-1.875-15.562-3.75-4.313-9.75-6-15-4.125-.75.187-64.312 21.188-134.25 31.312 36.188-21.75 78-52.688 95.062-86.812 13.312-26.812 26.25-95.25 33.375-137.81 30 21.75 86.062 33 141.56 33s107.06-10.5 137.81-30.562c4.125 50.25 17.062 135 58.5 176.44 27.938 27.938 60.188 47.062 86.25 59.438zm62.625-242.62c-4.125-2.813-9.563-3.188-14.062-.938-7.125 3.563-62.062 31.688-89.625 65.438-1.5-14.812-2.625-35.062-2.625-52.875 0-4.875-2.438-9.375-6.75-12-2.25-1.312-4.875-2.062-7.313-2.062-2.062 0-4.312.562-6.187 1.5l-50.812 25.312v-.938c-1.688-14.25-2.438-26.625-3-36.375-1.125-13.5 1.312-27.562-6.188-39.562-11.625-19.688-40.5-33.938-76.688-42.188 8.625-33 14.812-66.75 20.438-100.12 30 21.75 86.062 33 141.56 33s107.06-10.5 137.81-30.562c4.125 50.25 17.062 135 58.5 176.44 27.75 27.75 51.188 46.688 68.062 59.062-34.5 4.5-94.5 2.438-162.94-43.125z"></path>
  </symbol><symbol  viewBox='0 0 1024 1024' id='tree'>
    <path d="M417.06 56.669c-109.201 0-198.565 88.574-198.564 197.32v.107c.111 30.51 7.351 60.437 20.95 87.482-48.681 38.155-77.964 96.87-78.137 159.781v.082c0 112.193 91.579 203.773 203.772 203.774h.014c35.168-.017 69.11-9.168 98.937-25.76v229.208H301.25v58.669h403.94v-58.67H522.702V633.936c28.556 11.169 58.98 17.075 89.798 17.23h.147c137.749.001 250.046-112.296 250.045-250.044 0-137.749-112.296-250.046-250.045-250.045h-.174l-.175.002c-8.376.1-16.732.65-25.046 1.588C551.68 93.65 487.262 56.69 417.068 56.67h-.004zm-.01 58.668h.01c55.117.02 104.87 31.976 127.475 81.646l9.673 21.254 22.88-4.66a191.4 191.4 0 0 1 35.783-3.827c105.938.12 191.153 85.404 191.153 191.37 0 106.014-85.29 191.33-191.291 191.375a191.4 191.4 0 0 1-87.887-21.904l-23.652-12.41-14.564 22.39a145.01 145.01 0 0 1-121.549 65.975 144.66 144.66 0 0 1-145.103-145.072 144.99 144.99 0 0 1 73.36-125.683l28.218-16.052-18.823-26.453c-16.54-23.246-25.452-50.933-25.568-79.346.026-76.778 62.18-138.598 139.885-138.603z" style="stroke-width:.907727"></path>
  </symbol><symbol  viewBox='0 0 1200 1200' id='user'>
    <path d="M169.32 1163.2c0 51.535-73.621 51.535-73.621 0 0-276.07 224.54-504.29 504.29-504.29s504.29 228.22 504.29 504.29c0 51.535-73.621 51.535-73.621 0 0-235.58-191.41-430.68-430.68-430.68s-430.68 195.09-430.68 430.68zM600 0c169.32 0 305.52 136.2 305.52 305.52S769.32 611.04 600 611.04s-305.52-136.2-305.52-305.52S430.68 0 600 0m0 73.621c-128.84 0-231.9 103.07-231.9 231.9 0 132.52 103.07 231.9 231.9 231.9s231.9-103.07 231.9-231.9c0-128.84-103.07-231.9-231.9-231.9"></path>
  </symbol></svg>